<svg xmlns="http://www.w3.org/2000/svg" xmlns:xlink="http://www.w3.org/1999/xlink" viewBox="0 0 1945.92 1622.72"><defs><style>.cls-1{mask:url(#mask);filter:url(#luminosity-noclip-2);}.cls-101,.cls-103,.cls-104,.cls-105,.cls-106,.cls-118,.cls-119,.cls-121,.cls-122,.cls-146,.cls-147,.cls-150,.cls-153,.cls-154,.cls-156,.cls-157,.cls-158,.cls-160,.cls-161,.cls-162,.cls-165,.cls-167,.cls-170,.cls-172,.cls-173,.cls-2,.cls-31,.cls-32,.cls-38,.cls-39,.cls-40,.cls-41,.cls-43,.cls-58,.cls-84,.cls-86,.cls-88,.cls-91,.cls-92,.cls-95,.cls-97,.cls-99{mix-blend-mode:multiply;}.cls-2{fill:url(#linear-gradient);}.cls-3{isolation:isolate;}.cls-4{mask:url(#mask-2);}.cls-5{fill:url(#linear-gradient-2);}.cls-10,.cls-11,.cls-12,.cls-13,.cls-135,.cls-136,.cls-137,.cls-138,.cls-139,.cls-14,.cls-140,.cls-141,.cls-143,.cls-15,.cls-32,.cls-56,.cls-6,.cls-7,.cls-8,.cls-9{fill-rule:evenodd;}.cls-6{fill:url(#linear-gradient-3);}.cls-7{fill:url(#linear-gradient-4);}.cls-8{fill:url(#linear-gradient-5);}.cls-9{fill:url(#linear-gradient-6);}.cls-10{fill:url(#linear-gradient-7);}.cls-11{fill:url(#linear-gradient-8);}.cls-12{fill:url(#linear-gradient-9);}.cls-13{fill:url(#linear-gradient-10);}.cls-14{fill:url(#linear-gradient-11);}.cls-15{fill:url(#linear-gradient-12);}.cls-16{fill:url(#linear-gradient-13);}.cls-17{fill:url(#linear-gradient-14);}.cls-18{fill:url(#linear-gradient-15);}.cls-19{fill:url(#linear-gradient-16);}.cls-20{fill:url(#linear-gradient-17);}.cls-21{fill:url(#linear-gradient-18);}.cls-22{fill:url(#linear-gradient-19);}.cls-23{fill:url(#linear-gradient-20);}.cls-24{fill:url(#linear-gradient-21);}.cls-25{fill:url(#linear-gradient-22);}.cls-26{fill:url(#linear-gradient-23);}.cls-27{fill:url(#linear-gradient-24);}.cls-28{fill:url(#linear-gradient-25);}.cls-29{fill:url(#linear-gradient-26);}.cls-30{fill:url(#linear-gradient-27);}.cls-31{fill:#d7eeed;}.cls-105,.cls-106,.cls-121,.cls-147,.cls-153,.cls-154,.cls-161,.cls-162,.cls-165,.cls-167,.cls-170,.cls-172,.cls-173,.cls-32,.cls-37,.cls-58{opacity:0.6;}.cls-32{fill:url(#linear-gradient-28);}.cls-33{fill:url(#linear-gradient-29);}.cls-34{fill:url(#linear-gradient-30);}.cls-35{fill:url(#linear-gradient-31);}.cls-36{fill:url(#linear-gradient-32);}.cls-38{fill:url(#linear-gradient-33);}.cls-39{fill:url(#linear-gradient-34);}.cls-40{fill:url(#linear-gradient-35);}.cls-41{fill:url(#linear-gradient-36);}.cls-42{fill:#0c0d18;}.cls-146,.cls-43,.cls-84{opacity:0.3;}.cls-43{fill:url(#linear-gradient-37);}.cls-44{fill:url(#linear-gradient-38);}.cls-45{fill:url(#linear-gradient-39);}.cls-46{fill:url(#linear-gradient-40);}.cls-47{fill:url(#linear-gradient-41);}.cls-48{fill:url(#linear-gradient-42);}.cls-49{fill:url(#linear-gradient-43);}.cls-50{fill:url(#linear-gradient-44);}.cls-51{fill:url(#linear-gradient-45);}.cls-52{fill:url(#linear-gradient-46);}.cls-53{fill:url(#linear-gradient-47);}.cls-54{fill:url(#linear-gradient-48);}.cls-55{opacity:0.9;}.cls-56{fill:#fff;}.cls-57{fill:url(#linear-gradient-49);}.cls-58{fill:url(#linear-gradient-50);}.cls-59{fill:url(#linear-gradient-51);}.cls-60{fill:url(#linear-gradient-52);}.cls-61{fill:url(#linear-gradient-53);}.cls-62{fill:url(#linear-gradient-54);}.cls-63{fill:url(#linear-gradient-55);}.cls-64{fill:url(#linear-gradient-56);}.cls-65{fill:#0f121a;}.cls-66{fill:#022e25;}.cls-67{fill:url(#linear-gradient-57);}.cls-68{fill:url(#linear-gradient-58);}.cls-69{fill:url(#linear-gradient-59);}.cls-70{fill:url(#linear-gradient-60);}.cls-71{fill:url(#linear-gradient-61);}.cls-72{fill:url(#linear-gradient-62);}.cls-73{fill:url(#linear-gradient-63);}.cls-74{fill:url(#linear-gradient-64);}.cls-75{fill:url(#linear-gradient-65);}.cls-76{fill:url(#linear-gradient-66);}.cls-77{fill:url(#linear-gradient-67);}.cls-78{fill:url(#linear-gradient-68);}.cls-79{fill:url(#linear-gradient-69);}.cls-80{fill:url(#linear-gradient-70);}.cls-81{fill:url(#linear-gradient-71);}.cls-82{fill:url(#linear-gradient-72);}.cls-83{fill:url(#linear-gradient-73);}.cls-84{fill:url(#linear-gradient-74);}.cls-85{fill:url(#linear-gradient-75);}.cls-101,.cls-104,.cls-150,.cls-86,.cls-88,.cls-91,.cls-92,.cls-95,.cls-99{opacity:0.5;}.cls-86{fill:url(#linear-gradient-76);}.cls-87{fill:url(#linear-gradient-77);}.cls-88{fill:url(#linear-gradient-78);}.cls-89{fill:url(#linear-gradient-79);}.cls-90{fill:url(#linear-gradient-80);}.cls-91{fill:url(#linear-gradient-81);}.cls-92{fill:url(#linear-gradient-82);}.cls-93{fill:url(#linear-gradient-83);}.cls-94{fill:url(#linear-gradient-84);}.cls-95{fill:url(#linear-gradient-85);}.cls-96{fill:url(#linear-gradient-86);}.cls-97{opacity:0.8;fill:url(#linear-gradient-87);}.cls-98{fill:url(#linear-gradient-88);}.cls-99{fill:url(#linear-gradient-89);}.cls-100{fill:url(#linear-gradient-90);}.cls-101{fill:url(#linear-gradient-91);}.cls-102{fill:url(#linear-gradient-92);}.cls-103{fill:url(#linear-gradient-93);}.cls-104{fill:url(#linear-gradient-94);}.cls-105{fill:url(#linear-gradient-95);}.cls-106{fill:url(#linear-gradient-97);}.cls-107{fill:url(#linear-gradient-99);}.cls-108{fill:#151427;}.cls-109{fill:url(#linear-gradient-100);}.cls-110{fill:url(#linear-gradient-101);}.cls-111{fill:url(#linear-gradient-102);}.cls-112{fill:url(#linear-gradient-103);}.cls-113{fill:url(#linear-gradient-104);}.cls-114{fill:url(#linear-gradient-105);}.cls-115{fill:url(#linear-gradient-106);}.cls-116{fill:url(#linear-gradient-107);}.cls-117{fill:url(#linear-gradient-108);}.cls-118,.cls-122{opacity:0.2;}.cls-118{fill:url(#linear-gradient-109);}.cls-119,.cls-156,.cls-157,.cls-158,.cls-160{opacity:0.4;}.cls-119{fill:url(#linear-gradient-110);}.cls-120{fill:url(#linear-gradient-111);}.cls-121{fill:url(#linear-gradient-112);}.cls-122{fill:url(#linear-gradient-113);}.cls-123{fill:url(#linear-gradient-114);}.cls-124{fill:url(#linear-gradient-115);}.cls-125{fill:url(#linear-gradient-116);}.cls-126{fill:url(#linear-gradient-117);}.cls-127{fill:url(#linear-gradient-118);}.cls-128{fill:url(#linear-gradient-119);}.cls-129{fill:url(#linear-gradient-120);}.cls-130{fill:url(#linear-gradient-121);}.cls-131{fill:#244282;}.cls-132{fill:#0c1e41;}.cls-133{fill:#0388b8;}.cls-134{fill:#f7f4bb;}.cls-135{fill:url(#linear-gradient-122);}.cls-136{fill:url(#linear-gradient-123);}.cls-137{fill:url(#linear-gradient-124);}.cls-138{fill:url(#linear-gradient-125);}.cls-139{fill:url(#linear-gradient-126);}.cls-140{fill:url(#linear-gradient-127);}.cls-141{fill:url(#linear-gradient-128);}.cls-142{fill:#006838;}.cls-143{fill:url(#linear-gradient-129);}.cls-144{fill:url(#linear-gradient-130);}.cls-145{fill:url(#linear-gradient-131);}.cls-146{fill:url(#linear-gradient-132);}.cls-147{fill:url(#linear-gradient-133);}.cls-148{fill:url(#linear-gradient-134);}.cls-149{fill:url(#linear-gradient-135);}.cls-150{fill:url(#linear-gradient-136);}.cls-151{fill:url(#linear-gradient-137);}.cls-152{fill:url(#linear-gradient-138);}.cls-153{fill:url(#linear-gradient-139);}.cls-154{fill:url(#linear-gradient-140);}.cls-155{fill:url(#linear-gradient-141);}.cls-156{fill:url(#linear-gradient-142);}.cls-157{fill:url(#linear-gradient-143);}.cls-158{fill:url(#linear-gradient-144);}.cls-159{fill:url(#linear-gradient-145);}.cls-160{fill:url(#linear-gradient-146);}.cls-161{fill:url(#linear-gradient-147);}.cls-162{fill:url(#linear-gradient-148);}.cls-163{fill:url(#linear-gradient-149);}.cls-164{fill:url(#linear-gradient-150);}.cls-165{fill:url(#linear-gradient-151);}.cls-166{fill:url(#linear-gradient-152);}.cls-167{fill:url(#linear-gradient-153);}.cls-168{fill:url(#linear-gradient-154);}.cls-169{fill:url(#linear-gradient-155);}.cls-170{fill:url(#linear-gradient-156);}.cls-171{fill:url(#linear-gradient-157);}.cls-172{fill:url(#linear-gradient-158);}.cls-173{fill:url(#linear-gradient-159);}.cls-174{filter:url(#luminosity-noclip);}</style><filter id="luminosity-noclip" x="188.75" y="-8890.04" width="1757.16" height="32766" filterUnits="userSpaceOnUse" color-interpolation-filters="sRGB"><feFlood flood-color="#fff" result="bg"/><feBlend in="SourceGraphic" in2="bg"/></filter><mask id="mask" x="188.75" y="-8890.04" width="1757.16" height="32766" maskUnits="userSpaceOnUse"><g class="cls-174"/></mask><linearGradient id="linear-gradient" x1="1067.33" y1="1680.35" x2="1067.33" y2="424.79" gradientUnits="userSpaceOnUse"><stop offset="0"/><stop offset="0.99" stop-color="#fff"/></linearGradient><filter id="luminosity-noclip-2" x="188.75" y="337.57" width="1757.16" height="1031.17" filterUnits="userSpaceOnUse" color-interpolation-filters="sRGB"><feFlood flood-color="#fff" result="bg"/><feBlend in="SourceGraphic" in2="bg"/></filter><mask id="mask-2" x="188.75" y="337.57" width="1757.16" height="1031.17" maskUnits="userSpaceOnUse"><g class="cls-1"><path class="cls-2" d="M208.42,1328S99.8,819.74,393.09,714.25C659.8,618.32,754.93,566.46,854.75,502.43c157.33-100.92,225.4-201,445.38-152.08,221.19,49.16,241.32,321.46,372,369.34,192.81,70.6,239,190.1,266.13,369.33s-27.15,279.72-27.15,279.72Z"/></g></mask><linearGradient id="linear-gradient-2" x1="1067.33" y1="1680.35" x2="1067.33" y2="424.79" gradientUnits="userSpaceOnUse"><stop offset="0" stop-color="#fff2cf"/><stop offset="0.99" stop-color="#90cfb2"/></linearGradient><linearGradient id="linear-gradient-3" x1="1467.01" y1="1123.39" x2="1401.83" y2="191.91" gradientUnits="userSpaceOnUse"><stop offset="0" stop-color="#489cd5"/><stop offset="1" stop-color="#fff"/></linearGradient><linearGradient id="linear-gradient-4" x1="-241.44" y1="548.45" x2="58.34" y2="548.45" gradientTransform="matrix(-1, 0, 0, 1, 1225.64, 0)" gradientUnits="userSpaceOnUse"><stop offset="0" stop-color="#54a947"/><stop offset="1" stop-color="#c6dc71"/></linearGradient><linearGradient id="linear-gradient-5" x1="-371.7" y1="713.74" x2="-225.33" y2="713.74" gradientTransform="matrix(-1, 0, 0, 1, 1225.64, 0)" gradientUnits="userSpaceOnUse"><stop offset="0" stop-color="#54a947"/><stop offset="1" stop-color="#dbe79e"/></linearGradient><linearGradient id="linear-gradient-6" x1="-364.64" y1="443.52" x2="-233.3" y2="443.52" xlink:href="#linear-gradient-4"/><linearGradient id="linear-gradient-7" x1="1437.49" y1="582.81" x2="1486.38" y2="582.81" gradientUnits="userSpaceOnUse"><stop offset="0" stop-color="#489cd5"/><stop offset="1" stop-color="#3b6db4"/></linearGradient><linearGradient id="linear-gradient-8" x1="597.26" y1="1128.62" x2="589.12" y2="235.16" xlink:href="#linear-gradient-3"/><linearGradient id="linear-gradient-9" x1="1614.14" y1="548.45" x2="1913.93" y2="548.45" gradientTransform="translate(-1019.96)" xlink:href="#linear-gradient-4"/><linearGradient id="linear-gradient-10" x1="1483.89" y1="713.74" x2="1630.26" y2="713.74" gradientTransform="translate(-1019.96)" xlink:href="#linear-gradient-4"/><linearGradient id="linear-gradient-11" x1="1490.95" y1="443.52" x2="1622.29" y2="443.52" gradientTransform="translate(-1019.96)" xlink:href="#linear-gradient-4"/><linearGradient id="linear-gradient-12" x1="-418.09" y1="582.81" x2="-369.21" y2="582.81" gradientTransform="matrix(-1, 0, 0, 1, 205.68, 0)" xlink:href="#linear-gradient-7"/><linearGradient id="linear-gradient-13" x1="1641.46" y1="873.58" x2="1639.65" y2="1289.87" gradientUnits="userSpaceOnUse"><stop offset="0" stop-color="#fdcfa1"/><stop offset="0.99" stop-color="#ee4d6b"/></linearGradient><linearGradient id="linear-gradient-14" x1="1646.53" y1="1042.58" x2="1645.07" y2="1378.95" gradientUnits="userSpaceOnUse"><stop offset="0" stop-color="#e56a25"/><stop offset="0.99" stop-color="#75172d"/></linearGradient><linearGradient id="linear-gradient-15" x1="1583.8" y1="960.07" x2="1582.41" y2="1280.19" xlink:href="#linear-gradient-13"/><linearGradient id="linear-gradient-16" x1="1483.27" y1="745.61" x2="1480.99" y2="1269.13" xlink:href="#linear-gradient-13"/><linearGradient id="linear-gradient-17" x1="1489.64" y1="958.15" x2="1487.8" y2="1381.15" xlink:href="#linear-gradient-14"/><linearGradient id="linear-gradient-18" x1="-557.4" y1="850.94" x2="-559.21" y2="1267.23" gradientTransform="matrix(-1, 0, 0, 1, -82.32, 0)" xlink:href="#linear-gradient-13"/><linearGradient id="linear-gradient-19" x1="-552.32" y1="1019.95" x2="-553.78" y2="1356.32" gradientTransform="matrix(-1, 0, 0, 1, -82.32, 0)" xlink:href="#linear-gradient-14"/><linearGradient id="linear-gradient-20" x1="-615.05" y1="937.44" x2="-616.44" y2="1257.56" gradientTransform="matrix(-1, 0, 0, 1, -82.32, 0)" xlink:href="#linear-gradient-13"/><linearGradient id="linear-gradient-21" x1="-715.59" y1="722.97" x2="-717.86" y2="1246.5" gradientTransform="matrix(-1, 0, 0, 1, -82.32, 0)" xlink:href="#linear-gradient-13"/><linearGradient id="linear-gradient-22" x1="-709.21" y1="935.52" x2="-711.05" y2="1358.52" gradientTransform="matrix(-1, 0, 0, 1, -82.32, 0)" xlink:href="#linear-gradient-14"/><linearGradient id="linear-gradient-23" x1="1079.76" y1="1433.65" x2="1079.76" y2="526.39" gradientUnits="userSpaceOnUse"><stop offset="0" stop-color="#bde5f2"/><stop offset="1" stop-color="#619ad2"/></linearGradient><linearGradient id="linear-gradient-24" x1="742.87" y1="707.75" x2="745.02" y2="1225.03" gradientTransform="matrix(1, 0, 0, 1, 0, 0)" xlink:href="#linear-gradient-4"/><linearGradient id="linear-gradient-25" x1="1116.29" y1="630.66" x2="1119.18" y2="1327" gradientTransform="matrix(1, 0, 0, 1, 0, 0)" xlink:href="#linear-gradient-4"/><linearGradient id="linear-gradient-26" x1="1296.11" y1="666.72" x2="1298.53" y2="1249.72" gradientTransform="matrix(1, 0, 0, 1, 0, 0)" xlink:href="#linear-gradient-4"/><linearGradient id="linear-gradient-27" x1="1072.53" y1="648.49" x2="1074.36" y2="1088.23" gradientTransform="matrix(1, 0, 0, 1, 0, 0)" xlink:href="#linear-gradient-4"/><linearGradient id="linear-gradient-28" x1="1073.36" y1="886.45" x2="876.01" y2="1311.93" xlink:href="#linear-gradient-2"/><linearGradient id="linear-gradient-29" x1="325.29" y1="1324.77" x2="310.02" y2="1226.97" gradientUnits="userSpaceOnUse"><stop offset="0" stop-color="#062e1e"/><stop offset="1" stop-color="#0c0e19"/></linearGradient><linearGradient id="linear-gradient-30" x1="130.05" y1="1089.48" x2="276.69" y2="1418.08" gradientUnits="userSpaceOnUse"><stop offset="0" stop-color="#e0edcc"/><stop offset="1" stop-color="#252669"/></linearGradient><linearGradient id="linear-gradient-31" x1="849.17" y1="1395.13" x2="391.1" y2="681.77" gradientUnits="userSpaceOnUse"><stop offset="0" stop-color="#22b259"/><stop offset="1" stop-color="#e3e65c"/></linearGradient><linearGradient id="linear-gradient-32" x1="600.56" y1="966.82" x2="694.91" y2="1297.07" gradientUnits="userSpaceOnUse"><stop offset="0" stop-color="#a5cd39"/><stop offset="0.99" stop-color="#6fbd46"/></linearGradient><linearGradient id="linear-gradient-33" x1="395.17" y1="1021.25" x2="461.82" y2="1254.54" xlink:href="#linear-gradient-32"/><linearGradient id="linear-gradient-34" x1="540.27" y1="994.83" x2="614.34" y2="1254.07" xlink:href="#linear-gradient-32"/><linearGradient id="linear-gradient-35" x1="714.42" y1="994.82" x2="788.49" y2="1254.07" xlink:href="#linear-gradient-32"/><linearGradient id="linear-gradient-36" x1="867.87" y1="998.9" x2="939.07" y2="1248.1" xlink:href="#linear-gradient-32"/><linearGradient id="linear-gradient-37" x1="1065.68" y1="1233.1" x2="980.59" y2="688.13" xlink:href="#linear-gradient-31"/><linearGradient id="linear-gradient-38" x1="565.12" y1="1416.52" x2="536.15" y2="1114.15" xlink:href="#linear-gradient-29"/><linearGradient id="linear-gradient-39" x1="98.08" y1="949.92" x2="193.13" y2="1156.31" gradientUnits="userSpaceOnUse"><stop offset="0" stop-color="#fff"/><stop offset="1" stop-color="#0c0e19"/></linearGradient><linearGradient id="linear-gradient-40" x1="206.02" y1="1439.68" x2="95.57" y2="1255" gradientUnits="userSpaceOnUse"><stop offset="0" stop-color="#131544"/><stop offset="1" stop-color="#333641"/></linearGradient><linearGradient id="linear-gradient-41" x1="222.11" y1="1503.67" x2="104.43" y2="1239.33" gradientUnits="userSpaceOnUse"><stop offset="0" stop-color="#5cbc76"/><stop offset="1" stop-color="#d5edf0"/></linearGradient><linearGradient id="linear-gradient-42" x1="137.43" y1="1316.08" x2="184.5" y2="1424.71" xlink:href="#linear-gradient-40"/><linearGradient id="linear-gradient-43" x1="723.83" y1="1439.68" x2="613.39" y2="1255" xlink:href="#linear-gradient-40"/><linearGradient id="linear-gradient-44" x1="739.93" y1="1503.67" x2="622.24" y2="1239.33" xlink:href="#linear-gradient-41"/><linearGradient id="linear-gradient-45" x1="655.25" y1="1316.08" x2="702.32" y2="1424.71" xlink:href="#linear-gradient-40"/><linearGradient id="linear-gradient-46" x1="977.31" y1="1439.68" x2="866.86" y2="1255" xlink:href="#linear-gradient-40"/><linearGradient id="linear-gradient-47" x1="993.41" y1="1503.67" x2="875.72" y2="1239.33" xlink:href="#linear-gradient-41"/><linearGradient id="linear-gradient-48" x1="908.73" y1="1316.08" x2="955.8" y2="1424.71" xlink:href="#linear-gradient-40"/><linearGradient id="linear-gradient-49" x1="1015.34" y1="1038.32" x2="1076.63" y2="1252.87" xlink:href="#linear-gradient-32"/><linearGradient id="linear-gradient-50" x1="1020.51" y1="1036.84" x2="1081.81" y2="1251.39" xlink:href="#linear-gradient-32"/><linearGradient id="linear-gradient-51" x1="-10.68" y1="1224.84" x2="71.7" y2="1285.5" gradientUnits="userSpaceOnUse"><stop offset="0" stop-color="#e6dd17"/><stop offset="0.99" stop-color="#ffcd5c"/></linearGradient><linearGradient id="linear-gradient-52" x1="-33.36" y1="1255.65" x2="49.02" y2="1316.31" xlink:href="#linear-gradient-51"/><linearGradient id="linear-gradient-53" x1="1833.72" y1="1306.55" x2="1852.83" y2="1373.47" xlink:href="#linear-gradient-32"/><linearGradient id="linear-gradient-54" x1="773.58" y1="1416.69" x2="792.7" y2="1483.61" xlink:href="#linear-gradient-32"/><linearGradient id="linear-gradient-55" x1="1682.47" y1="1423.93" x2="1701.59" y2="1490.85" xlink:href="#linear-gradient-32"/><linearGradient id="linear-gradient-56" x1="1150.17" y1="1420.31" x2="1169.29" y2="1487.23" xlink:href="#linear-gradient-32"/><linearGradient id="linear-gradient-57" x1="1591.11" y1="1570.23" x2="1599.6" y2="1113.91" gradientUnits="userSpaceOnUse"><stop offset="0" stop-color="#3e54a4"/><stop offset="0.99" stop-color="#7cc9f0"/></linearGradient><linearGradient id="linear-gradient-58" x1="1594.06" y1="1323.6" x2="1600.24" y2="1222.63" gradientUnits="userSpaceOnUse"><stop offset="0" stop-color="#3e54a4"/><stop offset="0.99" stop-color="#224193"/></linearGradient><linearGradient id="linear-gradient-59" x1="1591.49" y1="1303.81" x2="1596.34" y2="1240.71" xlink:href="#linear-gradient-57"/><linearGradient id="linear-gradient-60" x1="1361.81" y1="1570.23" x2="1370.31" y2="1113.92" gradientUnits="userSpaceOnUse"><stop offset="0" stop-color="#27b24b"/><stop offset="1" stop-color="#c0d735"/></linearGradient><linearGradient id="linear-gradient-61" x1="1368.22" y1="1333.13" x2="1368.22" y2="1194.75" gradientUnits="userSpaceOnUse"><stop offset="0" stop-color="#27b24b"/><stop offset="1" stop-color="#2da149"/></linearGradient><linearGradient id="linear-gradient-62" x1="1362.18" y1="1303.82" x2="1367.04" y2="1240.71" xlink:href="#linear-gradient-60"/><linearGradient id="linear-gradient-63" x1="895.05" y1="1570.23" x2="903.55" y2="1113.91" gradientUnits="userSpaceOnUse"><stop offset="0" stop-color="#b9202a"/><stop offset="0.99" stop-color="#e43527"/></linearGradient><linearGradient id="linear-gradient-64" x1="896.29" y1="1323.6" x2="902.47" y2="1222.63" gradientUnits="userSpaceOnUse"><stop offset="0" stop-color="#b9202a"/><stop offset="0.99" stop-color="#891b1b"/></linearGradient><linearGradient id="linear-gradient-65" x1="895.43" y1="1303.81" x2="900.28" y2="1240.71" xlink:href="#linear-gradient-63"/><linearGradient id="linear-gradient-66" x1="1130.23" y1="1570.23" x2="1138.73" y2="1113.92" gradientUnits="userSpaceOnUse"><stop offset="0" stop-color="#f37721"/><stop offset="0.99" stop-color="#fdc773"/></linearGradient><linearGradient id="linear-gradient-67" x1="1132.84" y1="1323.61" x2="1139.02" y2="1222.62" gradientUnits="userSpaceOnUse"><stop offset="0" stop-color="#f37721"/><stop offset="0.99" stop-color="#e56725"/></linearGradient><linearGradient id="linear-gradient-68" x1="1133.21" y1="1243.89" x2="1133.21" y2="1320.12" xlink:href="#linear-gradient-66"/><linearGradient id="linear-gradient-69" x1="2531.06" y1="914.48" x2="2475.01" y2="957.11" gradientTransform="translate(-1775.51)" gradientUnits="userSpaceOnUse"><stop offset="0" stop-color="#2b2d6b"/><stop offset="1" stop-color="#3d56a5"/></linearGradient><linearGradient id="linear-gradient-70" x1="2516.08" y1="949.14" x2="2515.88" y2="949.29" gradientTransform="translate(-1775.51)" gradientUnits="userSpaceOnUse"><stop offset="0" stop-color="#f26b24"/><stop offset="1" stop-color="#e81e6c"/></linearGradient><linearGradient id="linear-gradient-71" x1="2458.82" y1="913.92" x2="2431.3" y2="966.54" xlink:href="#linear-gradient-69"/><linearGradient id="linear-gradient-72" x1="2465.19" y1="949.23" x2="2465.18" y2="949.3" xlink:href="#linear-gradient-70"/><linearGradient id="linear-gradient-73" x1="2464.64" y1="677.12" x2="2461.77" y2="717.98" gradientTransform="translate(-1775.51)" gradientUnits="userSpaceOnUse"><stop offset="0" stop-color="#facbc0"/><stop offset="1" stop-color="#f1748a"/></linearGradient><linearGradient id="linear-gradient-74" x1="2464.37" y1="678.87" x2="2462.38" y2="707.2" xlink:href="#linear-gradient-73"/><linearGradient id="linear-gradient-75" x1="2465.66" y1="769.77" x2="2473.79" y2="901.65" gradientTransform="translate(-1775.51)" gradientUnits="userSpaceOnUse"><stop offset="0" stop-color="#0b1639"/><stop offset="1" stop-color="#362114"/></linearGradient><linearGradient id="linear-gradient-76" x1="2467.19" y1="764.41" x2="2474.71" y2="886.49" xlink:href="#linear-gradient-75"/><linearGradient id="linear-gradient-77" x1="2472.09" y1="716.72" x2="2557.38" y2="716.72" xlink:href="#linear-gradient-73"/><linearGradient id="linear-gradient-78" x1="2472.69" y1="721.55" x2="2555.47" y2="721.55" xlink:href="#linear-gradient-73"/><linearGradient id="linear-gradient-79" x1="2456.15" y1="811.71" x2="2432.19" y2="944.48" xlink:href="#linear-gradient-75"/><linearGradient id="linear-gradient-80" x1="2462.26" y1="671.87" x2="2467.04" y2="700.22" xlink:href="#linear-gradient-73"/><linearGradient id="linear-gradient-81" x1="2445.54" y1="834.87" x2="2429.53" y2="923.58" xlink:href="#linear-gradient-75"/><linearGradient id="linear-gradient-82" x1="2465.67" y1="663.81" x2="2467.79" y2="676.4" xlink:href="#linear-gradient-73"/><linearGradient id="linear-gradient-83" x1="2472.09" y1="717.64" x2="2497.32" y2="717.64" gradientTransform="translate(-1775.51)" gradientUnits="userSpaceOnUse"><stop offset="0" stop-color="#2b2d6b"/><stop offset="1" stop-color="#f28ab8"/></linearGradient><linearGradient id="linear-gradient-84" x1="2507.27" y1="628.03" x2="2453.27" y2="661.39" gradientTransform="translate(-1775.51)" gradientUnits="userSpaceOnUse"><stop offset="0" stop-color="#2f4c9a"/><stop offset="1" stop-color="#252357"/></linearGradient><linearGradient id="linear-gradient-85" x1="2472.09" y1="717.64" x2="2497.13" y2="717.64" xlink:href="#linear-gradient-83"/><linearGradient id="linear-gradient-86" x1="2461.3" y1="701.61" x2="2461.3" y2="763.75" gradientTransform="translate(-1775.51)" gradientUnits="userSpaceOnUse"><stop offset="0" stop-color="#f0d6e7"/><stop offset="1" stop-color="#cbe6ea"/></linearGradient><linearGradient id="linear-gradient-87" x1="2461.91" y1="732.4" x2="2455.46" y2="790.47" xlink:href="#linear-gradient-86"/><linearGradient id="linear-gradient-88" x1="2416.9" y1="795.56" x2="2472.76" y2="795.56" gradientTransform="translate(-1775.51)" gradientUnits="userSpaceOnUse"><stop offset="0" stop-color="#fff"/><stop offset="1" stop-color="#9fdae4"/></linearGradient><linearGradient id="linear-gradient-89" x1="2472.76" y1="801.84" x2="2416.9" y2="801.84" xlink:href="#linear-gradient-88"/><linearGradient id="linear-gradient-90" x1="2420.97" y1="757.94" x2="2459.8" y2="757.94" xlink:href="#linear-gradient-73"/><linearGradient id="linear-gradient-91" x1="2421.42" y1="756.27" x2="2448.62" y2="756.27" xlink:href="#linear-gradient-73"/><linearGradient id="linear-gradient-92" x1="2479.46" y1="673.88" x2="2406.95" y2="764.04" xlink:href="#linear-gradient-83"/><linearGradient id="linear-gradient-93" x1="2468.25" y1="644.17" x2="2451.58" y2="679.76" xlink:href="#linear-gradient-84"/><linearGradient id="linear-gradient-94" x1="2470.04" y1="665.9" x2="2414.36" y2="771.29" xlink:href="#linear-gradient-83"/><linearGradient id="linear-gradient-95" x1="2529.95" y1="916.63" x2="2475.74" y2="957.86" xlink:href="#linear-gradient-69"/><linearGradient id="linear-gradient-97" x1="2444.61" y1="938.79" x2="2443.13" y2="953.1" xlink:href="#linear-gradient-69"/><linearGradient id="linear-gradient-99" x1="1754.57" y1="1580.93" x2="1709.59" y2="990.49" gradientUnits="userSpaceOnUse"><stop offset="0" stop-color="#eb448f"/><stop offset="1" stop-color="#3a51a0"/></linearGradient><linearGradient id="linear-gradient-100" x1="-700.88" y1="1162.41" x2="-697.02" y2="1107.67" gradientTransform="matrix(-1, 0, 0, 1, 1076.2, 0)" gradientUnits="userSpaceOnUse"><stop offset="0" stop-color="#facbbf"/><stop offset="1" stop-color="#df6d58"/></linearGradient><linearGradient id="linear-gradient-101" x1="-698.04" y1="1241.35" x2="-691.87" y2="1423.31" gradientTransform="matrix(-1, 0, 0, 1, 1076.2, 0)" gradientUnits="userSpaceOnUse"><stop offset="0" stop-color="#2b2d6a"/><stop offset="1" stop-color="#16161e"/></linearGradient><linearGradient id="linear-gradient-102" x1="1778.35" y1="1192.13" x2="1670.49" y2="1105.35" gradientTransform="matrix(1, 0, 0, 1, 0, 0)" xlink:href="#linear-gradient-100"/><linearGradient id="linear-gradient-103" x1="-739.52" y1="1309.38" x2="-675.72" y2="1309.38" gradientTransform="matrix(-1, 0, 0, 1, 1076.2, 0)" gradientUnits="userSpaceOnUse"><stop offset="0" stop-color="#2b2d6a"/><stop offset="1" stop-color="#242457"/></linearGradient><linearGradient id="linear-gradient-104" x1="-697.79" y1="1097.14" x2="-706.27" y2="1158.05" xlink:href="#linear-gradient-100"/><linearGradient id="linear-gradient-105" x1="-690.73" y1="1164.29" x2="-665.55" y2="1164.29" gradientTransform="matrix(-1, 0, 0, 1, 1076.2, 0)" gradientUnits="userSpaceOnUse"><stop offset="0" stop-color="#ee6926"/><stop offset="1" stop-color="#e61e6d"/></linearGradient><linearGradient id="linear-gradient-106" x1="1813.74" y1="1084.76" x2="1770.48" y2="1111.48" gradientUnits="userSpaceOnUse"><stop offset="0" stop-color="#2d4c99"/><stop offset="1" stop-color="#242457"/></linearGradient><linearGradient id="linear-gradient-107" x1="1787.65" y1="1107.7" x2="1760.73" y2="1353.06" gradientUnits="userSpaceOnUse"><stop offset="0" stop-color="#f79630"/><stop offset="1" stop-color="#eb3368"/></linearGradient><linearGradient id="linear-gradient-108" x1="1750.2" y1="1149.58" x2="1749.38" y2="1208.28" gradientTransform="matrix(1, 0, 0, 1, 0, 0)" xlink:href="#linear-gradient-100"/><linearGradient id="linear-gradient-109" x1="1786.96" y1="1183.3" x2="1723.1" y2="1208.17" gradientTransform="matrix(1, 0, 0, 1, 0, 0)" xlink:href="#linear-gradient-100"/><linearGradient id="linear-gradient-110" x1="1771.25" y1="1125.55" x2="1794.51" y2="1337.62" xlink:href="#linear-gradient-107"/><linearGradient id="linear-gradient-111" x1="-397.53" y1="-14.92" x2="-473.6" y2="79.66" gradientTransform="matrix(-0.35, -0.94, -0.94, 0.35, 1667.23, 748.72)" xlink:href="#linear-gradient-105"/><linearGradient id="linear-gradient-112" x1="1737" y1="1079.57" x2="1786.01" y2="1109.84" xlink:href="#linear-gradient-106"/><linearGradient id="linear-gradient-113" x1="1752.72" y1="1177.83" x2="1710.55" y2="1177.83" gradientTransform="matrix(1, 0, 0, 1, 0, 0)" xlink:href="#linear-gradient-100"/><linearGradient id="linear-gradient-114" x1="1695.73" y1="1180.86" x2="1707.8" y2="1170" gradientUnits="userSpaceOnUse"><stop offset="0" stop-color="#dfdfdf"/><stop offset="0.99" stop-color="#ffefa1"/></linearGradient><linearGradient id="linear-gradient-115" x1="1796.6" y1="1238.23" x2="1767.36" y2="1240.22" gradientTransform="matrix(0.99, -0.17, 0.17, 0.99, -256.5, 245.17)" xlink:href="#linear-gradient-114"/><linearGradient id="linear-gradient-116" x1="1722.14" y1="1162.49" x2="1675.67" y2="1162.49" xlink:href="#linear-gradient-114"/><linearGradient id="linear-gradient-117" x1="1806.11" y1="1235.5" x2="1776.87" y2="1237.48" gradientTransform="matrix(0.99, -0.17, 0.17, 0.99, -256.5, 245.17)" xlink:href="#linear-gradient-114"/><linearGradient id="linear-gradient-118" x1="1149.25" y1="366.15" x2="910.23" y2="-166.2" xlink:href="#linear-gradient-57"/><linearGradient id="linear-gradient-119" x1="1209.85" y1="338.95" x2="970.83" y2="-193.41" xlink:href="#linear-gradient-57"/><linearGradient id="linear-gradient-120" x1="1584.9" y1="195.63" x2="1343.2" y2="374.87" gradientUnits="userSpaceOnUse"><stop offset="0" stop-color="#ee4889"/><stop offset="1" stop-color="#e51859"/></linearGradient><linearGradient id="linear-gradient-121" x1="1188.88" y1="550.64" x2="1298" y2="802.21" gradientTransform="translate(-707.69 231.72) rotate(-22.81)" gradientUnits="userSpaceOnUse"><stop offset="0" stop-color="#f7cb9f"/><stop offset="0.99" stop-color="#ea4b6a"/></linearGradient><linearGradient id="linear-gradient-122" x1="1293.39" y1="11.8" x2="1302.97" y2="105.52" gradientTransform="matrix(0.99, 0.12, -0.12, 0.99, 64.69, -52.26)" gradientUnits="userSpaceOnUse"><stop offset="0" stop-color="#54a947"/><stop offset="1" stop-color="#0d2244"/></linearGradient><linearGradient id="linear-gradient-123" x1="1235.67" y1="17.7" x2="1245.26" y2="111.42" xlink:href="#linear-gradient-122"/><linearGradient id="linear-gradient-124" x1="1316.62" y1="9.42" x2="1326.2" y2="103.14" xlink:href="#linear-gradient-122"/><linearGradient id="linear-gradient-125" x1="1306.15" y1="10.49" x2="1315.73" y2="104.22" xlink:href="#linear-gradient-122"/><linearGradient id="linear-gradient-126" x1="1253.43" y1="15.89" x2="1263.01" y2="109.61" xlink:href="#linear-gradient-122"/><linearGradient id="linear-gradient-127" x1="1256.44" y1="15.58" x2="1266.02" y2="109.3" xlink:href="#linear-gradient-122"/><linearGradient id="linear-gradient-128" x1="784.06" y1="144.05" x2="765.85" y2="192.26" gradientTransform="matrix(1, 0, 0, 1, 0, 0)" xlink:href="#linear-gradient-4"/><linearGradient id="linear-gradient-129" x1="785.15" y1="112.48" x2="836.72" y2="112.48" gradientTransform="matrix(1, 0, 0, 1, 0, 0)" xlink:href="#linear-gradient-4"/><linearGradient id="linear-gradient-130" x1="920.71" y1="1320.15" x2="919.61" y2="1355.49" gradientUnits="userSpaceOnUse"><stop offset="0" stop-color="#facbbf"/><stop offset="1" stop-color="#e16d5a"/></linearGradient><linearGradient id="linear-gradient-131" x1="929.64" y1="1381.63" x2="894.31" y2="1639.65" gradientUnits="userSpaceOnUse"><stop offset="0" stop-color="#90cea6"/><stop offset="1" stop-color="#122e18"/></linearGradient><linearGradient id="linear-gradient-132" x1="919.58" y1="1319.53" x2="918.86" y2="1342.7" xlink:href="#linear-gradient-130"/><linearGradient id="linear-gradient-133" x1="931.84" y1="1394.11" x2="902.15" y2="1610.93" gradientUnits="userSpaceOnUse"><stop offset="0" stop-color="#51499b"/><stop offset="1" stop-color="#17122c"/></linearGradient><linearGradient id="linear-gradient-134" x1="927.58" y1="1421.66" x2="953.7" y2="1570.36" xlink:href="#linear-gradient-131"/><linearGradient id="linear-gradient-135" x1="921" y1="1307.79" x2="918.81" y2="1345.31" xlink:href="#linear-gradient-130"/><linearGradient id="linear-gradient-136" x1="917.53" y1="1298.7" x2="916.52" y2="1316" xlink:href="#linear-gradient-130"/><linearGradient id="linear-gradient-137" x1="898.84" y1="1298.48" x2="941.4" y2="1298.48" gradientUnits="userSpaceOnUse"><stop offset="0" stop-color="#865da6"/><stop offset="1" stop-color="#242258"/></linearGradient><linearGradient id="linear-gradient-138" x1="917.65" y1="1328.05" x2="924.23" y2="1403.94" gradientUnits="userSpaceOnUse"><stop offset="0" stop-color="#f0eb60"/><stop offset="1" stop-color="#3fa147"/></linearGradient><linearGradient id="linear-gradient-139" x1="900.9" y1="1300.63" x2="941.4" y2="1300.63" xlink:href="#linear-gradient-137"/><linearGradient id="linear-gradient-140" x1="930.29" y1="1343.74" x2="933.82" y2="1384.46" xlink:href="#linear-gradient-138"/><linearGradient id="linear-gradient-141" x1="879.59" y1="1310.39" x2="872.58" y2="1352.76" gradientUnits="userSpaceOnUse"><stop offset="0" stop-color="#0e6eb6"/><stop offset="1" stop-color="#fbf4a5"/></linearGradient><linearGradient id="linear-gradient-142" x1="866.54" y1="1312.27" x2="861.78" y2="1341.1" xlink:href="#linear-gradient-141"/><linearGradient id="linear-gradient-143" x1="884.7" y1="1313.31" x2="879.51" y2="1344.7" xlink:href="#linear-gradient-141"/><linearGradient id="linear-gradient-144" x1="899.29" y1="1317.52" x2="894.31" y2="1347.68" xlink:href="#linear-gradient-141"/><linearGradient id="linear-gradient-145" x1="874.99" y1="1422.64" x2="875.86" y2="1330.43" xlink:href="#linear-gradient-141"/><linearGradient id="linear-gradient-146" x1="876.01" y1="1422.14" x2="876.75" y2="1343.37" xlink:href="#linear-gradient-141"/><linearGradient id="linear-gradient-147" x1="884.72" y1="1424.08" x2="972.9" y2="1369.66" xlink:href="#linear-gradient-141"/><linearGradient id="linear-gradient-148" x1="909.83" y1="1453.76" x2="949.05" y2="1391" xlink:href="#linear-gradient-138"/><linearGradient id="linear-gradient-149" x1="928.91" y1="1379.46" x2="885.74" y2="1390.69" xlink:href="#linear-gradient-130"/><linearGradient id="linear-gradient-150" x1="956.21" y1="1346.94" x2="934.93" y2="1417.1" gradientUnits="userSpaceOnUse"><stop offset="0" stop-color="#92bae2"/><stop offset="1" stop-color="#3d59a7"/></linearGradient><linearGradient id="linear-gradient-151" x1="949.69" y1="1422.65" x2="947.08" y2="1371.49" xlink:href="#linear-gradient-150"/><linearGradient id="linear-gradient-152" x1="885.02" y1="1427" x2="952.01" y2="1385.65" gradientUnits="userSpaceOnUse"><stop offset="0" stop-color="#283891"/><stop offset="1" stop-color="#472c82"/></linearGradient><linearGradient id="linear-gradient-153" x1="829.89" y1="1392.8" x2="852.25" y2="1379" xlink:href="#linear-gradient-141"/><linearGradient id="linear-gradient-154" x1="891.15" y1="1574.06" x2="892.36" y2="1646.49" xlink:href="#linear-gradient-138"/><linearGradient id="linear-gradient-155" x1="827.7" y1="1395.07" x2="853.44" y2="1379.18" xlink:href="#linear-gradient-152"/><linearGradient id="linear-gradient-156" x1="964.57" y1="1534.23" x2="971.21" y2="1572.05" xlink:href="#linear-gradient-133"/><linearGradient id="linear-gradient-157" x1="995.62" y1="1542.24" x2="980.71" y2="1632.43" xlink:href="#linear-gradient-138"/><linearGradient id="linear-gradient-158" x1="1006.02" y1="1551.91" x2="995.66" y2="1614.61" xlink:href="#linear-gradient-150"/><linearGradient id="linear-gradient-159" x1="908.39" y1="1581.64" x2="899.87" y2="1633.21" xlink:href="#linear-gradient-150"/></defs><g class="cls-3"><g id="Layer_2" data-name="Layer 2"><g id="Organic_Garbage_Waste_Recycle_Process_" data-name="Organic Garbage Waste Recycle Process
"><g id="Organic_Garbage_Waste_Recycle" data-name="Organic Garbage Waste Recycle"><g class="cls-4"><path class="cls-5" d="M208.42,1328S99.8,819.74,393.09,714.25C659.8,618.32,754.93,566.46,854.75,502.43c157.33-100.92,225.4-201,445.38-152.08,221.19,49.16,241.32,321.46,372,369.34,192.81,70.6,239,190.1,266.13,369.33s-27.15,279.72-27.15,279.72Z"/></g><g id="windmill"><polygon class="cls-6" points="1483.66 1355.16 1440.21 1355.16 1451.26 581.18 1472.08 581.18 1483.66 1355.16"/><path class="cls-7" d="M1467.08,589.26s-8.23-33-81.9-54.22-217.89-37.75-217.89-37.75,152.38,81.09,204.93,95.15C1438.73,610.24,1467.08,589.26,1467.08,589.26Z"/><path class="cls-8" d="M1455.27,574s33.93,2.45,67.47,71.39,74.6,208.17,74.6,208.17-106-136.2-128.92-185.55C1439.47,605.5,1455.27,574,1455.27,574Z"/><path class="cls-9" d="M1465,587.25s-19.7-27.73,12.15-97.47,113.16-190,113.16-190-37.62,168.46-61.15,217.51C1499.34,579.39,1465,587.25,1465,587.25Z"/><path class="cls-10" d="M1437.49,582.81a24.45,24.45,0,1,0,24.45-24.44A24.45,24.45,0,0,0,1437.49,582.81Z"/><polygon class="cls-11" points="577.6 1355.16 621.06 1355.16 610.01 581.18 589.19 581.18 577.6 1355.16"/><path class="cls-12" d="M594.18,589.26s8.23-33,81.91-54.22C749.62,513.87,894,497.29,894,497.29s-152.38,81.09-204.92,95.15C622.53,610.24,594.18,589.26,594.18,589.26Z"/><path class="cls-13" d="M606,574s-33.92,2.45-67.47,71.39-74.59,208.17-74.59,208.17S570,717.32,592.85,668C621.8,605.5,606,574,606,574Z"/><path class="cls-14" d="M596.31,587.25s19.7-27.73-12.16-97.47S471,299.8,471,299.8s37.63,168.46,61.15,217.51C561.93,579.39,596.31,587.25,596.31,587.25Z"/><path class="cls-15" d="M623.77,582.81a24.44,24.44,0,1,1-24.44-24.44A24.45,24.45,0,0,1,623.77,582.81Z"/></g><g id="tree"><path class="cls-16" d="M1742.79,1131.13v65.32c0,23.43-34.52,24.67-34.52,34.53s3.83,43.83-11,43.83c-14.37,0-98.8,7.66-116-4.31a10.45,10.45,0,0,1-1.32-1.11c-10.08-10.06,3.36-27.69-8.13-56.36-8.21-20.43-30.58-41.48-32.47-53.54-2.51-16.17-3.19-59.33,3.72-65.35,35.05-30.51,28.52-78.38,46.83-98.61,1.79-2,5.35-3.32,9.27-4.66,6.48-2.19,13.85-4.28,15.39-8.9l2.47-7.39s.81-61,30.49-61c17.24,0,34.82,5.66,34.82,37.58,0,19.78,10.49,37.61,22.2,49.33s17.26,50.54,17.26,80.11S1742.79,1110.18,1742.79,1131.13Z"/><path class="cls-17" d="M1723.89,1129.89h-24.51l.67-25.34a4.93,4.93,0,1,0-9.85-.26l-.83,31.23a4.88,4.88,0,0,0,.14,1.21l-36.1,44v-81.38l32.35-38.65a4.93,4.93,0,0,0-7.57-6.33L1653.41,1084V1052.1a9.25,9.25,0,1,0-18.49,0v169.67l-33-40.25a4.86,4.86,0,0,0,.35-2l-.82-31.23a4.93,4.93,0,1,0-9.85.26l.73,28.1h-24.17a4.93,4.93,0,1,0,0,9.86h25.15l41.59,50.77v141.54l3.7,0,11,.08h3.78V1196.33l46.37-56.58h24.11a4.93,4.93,0,0,0,0-9.86Z"/><path class="cls-18" d="M1628.3,1097v82.16c0,29.46-43.41,31-43.41,43.41,0,9.21,2.67,35.19-3.59,47.92a10.45,10.45,0,0,1-1.32-1.11c-10.08-10.06,3.36-27.69-8.13-56.36-8.21-20.43-30.58-41.48-32.47-53.54-2.51-16.17-3.19-59.33,3.72-65.35,35.05-30.51,28.52-78.38,46.83-98.61,1.79-2,5.35-3.32,9.27-4.66a339.56,339.56,0,0,1,2.75,42.6C1602,1070.68,1628.3,1070.68,1628.3,1097Z"/><path class="cls-19" d="M1534.73,843.17c0,24.85,13.17,47.28,27.9,62s21.71,63.56,21.71,100.76,26.35,37.21,26.35,63.55v82.16c0,29.46-43.4,31-43.4,43.41s4.79,55.13-13.8,55.13-130.53,10.21-147.56-6.81c-12.66-12.66,4.26-34.84-10.21-70.89-10.32-25.7-38.45-52.15-40.81-67.34-3.16-20.33-4-74.61,4.66-82.16,44.09-38.39,35.87-98.56,58.9-124,5.93-6.56,27.9-7.76,31-17.06l3.11-9.3s1-76.73,38.34-76.73C1512.59,795.89,1534.73,803,1534.73,843.17Z"/><path class="cls-20" d="M1586.92,1068h-30.81l.84-31.88a6.2,6.2,0,0,0-12.4-.32l-1,39.27a6.38,6.38,0,0,0,.17,1.52l-45.39,55.39V1029.59L1539,981a6.2,6.2,0,0,0-9.51-8l-31.16,37.24V970.11a11.64,11.64,0,1,0-23.26,0v213.38l-41.47-50.61a6.35,6.35,0,0,0,.44-2.46l-1-39.28a6.2,6.2,0,0,0-12.4.33l.93,35.33h-30.4a6.2,6.2,0,1,0,0,12.4h31.63l52.3,63.86v178l4.65,0,13.84.1,4.77,0v-229.7l58.3-71.14h30.32a6.2,6.2,0,1,0,0-12.4Z"/><path class="cls-21" d="M373.75,1108.5v65.32c0,23.43,34.52,24.67,34.52,34.52s-3.83,43.83,11,43.83c14.37,0,98.8,7.67,116-4.3a10.71,10.71,0,0,0,1.33-1.11c10.08-10.06-3.37-27.69,8.12-56.36,8.21-20.43,30.58-41.48,32.48-53.54,2.5-16.18,3.19-59.34-3.72-65.35-35.05-30.51-28.52-78.38-46.83-98.61-1.79-2-5.35-3.33-9.27-4.66-6.48-2.19-13.85-4.28-15.4-8.9L499.48,952s-.81-61-30.49-61c-17.24,0-34.83,5.66-34.83,37.58,0,19.78-10.48,37.61-22.19,49.33s-17.26,50.54-17.26,80.11S373.75,1087.55,373.75,1108.5Z"/><path class="cls-22" d="M392.65,1107.26h24.5l-.66-25.34a4.93,4.93,0,1,1,9.85-.26l.83,31.23a4.88,4.88,0,0,1-.14,1.21l36.09,44v-81.38l-32.34-38.65a4.93,4.93,0,0,1,7.57-6.33l24.77,29.61v-31.93a9.25,9.25,0,1,1,18.5,0v169.68l33-40.25a4.87,4.87,0,0,1-.36-2l.82-31.23a4.93,4.93,0,1,1,9.86.26l-.73,28.09h24.17a4.94,4.94,0,0,1,0,9.87H523.21l-41.59,50.77v141.54l-3.7,0-11,.08h-3.79V1173.7l-46.36-56.58H392.65a4.93,4.93,0,0,1,0-9.86Z"/><path class="cls-23" d="M488.23,1074.38v82.16c0,29.46,43.42,31,43.42,43.41,0,9.21-2.67,35.19,3.58,47.92a10.71,10.71,0,0,0,1.33-1.11c10.08-10.06-3.37-27.69,8.12-56.36,8.21-20.43,30.58-41.48,32.48-53.54,2.5-16.18,3.19-59.34-3.72-65.35-35.05-30.51-28.52-78.38-46.83-98.61-1.79-2-5.35-3.33-9.27-4.66a337.65,337.65,0,0,0-2.75,42.59C514.59,1048.05,488.23,1048.05,488.23,1074.38Z"/><path class="cls-24" d="M581.81,820.54c0,24.85-13.17,47.28-27.9,62S532.2,946.1,532.2,983.31s-26.35,37.21-26.35,63.54V1129c0,29.46,43.4,31,43.4,43.41s-4.8,55.13,13.8,55.13,130.52,10.21,147.55-6.81c12.66-12.66-4.25-34.84,10.21-70.89,10.33-25.71,38.46-52.15,40.82-67.35,3.16-20.32,4-74.6-4.66-82.15-44.1-38.39-35.87-98.56-58.9-124-5.93-6.56-27.9-7.76-31-17.06L664,850s-1-76.73-38.34-76.73C604,773.26,581.81,780.37,581.81,820.54Z"/><path class="cls-25" d="M529.62,1045.31h30.81l-.84-31.87a6.2,6.2,0,0,1,12.4-.33l1,39.28a6.38,6.38,0,0,1-.17,1.52l45.39,55.39V1007l-40.67-48.61a6.2,6.2,0,0,1,9.51-8l31.16,37.24V947.47a11.63,11.63,0,1,1,23.25,0v213.39L683,1110.25a6.35,6.35,0,0,1-.44-2.46l1-39.28a6.21,6.21,0,0,1,12.41.32l-.94,35.34h30.4a6.2,6.2,0,1,1,0,12.4H693.8l-52.31,63.85v178l-4.65,0-13.83.1-4.77,0v-229.7l-58.3-71.15H529.62a6.2,6.2,0,0,1,0-12.4Z"/></g><g id="earth"><path class="cls-26" d="M1079.76,551c-224.8,0-407,182.23-407,407s182.24,407,407,407,407-182.23,407-407S1304.56,551,1079.76,551Z"/><path class="cls-27" d="M806.39,1150.52c8.66-17.34-5.78-104-17.34-118.46s-37.56-17.34-46.23-40.45-14.45-31.79-23.11-52S679.25,928,679.25,928l-6.08,11q-.43,9.42-.45,18.93c0,123.14,54.68,233.5,141.08,308.13,9.73-29.73-11.65-53.19-16.08-66.48C791.94,1182.31,797.72,1167.86,806.39,1150.52Z"/><path class="cls-28" d="M1246.38,970c-10.84-43.34,2.16-71.51-28.17-86.68s-56.35-39-82.35-36.83-43.34,4.33-49.84,4.33-91,21.67-91,21.67-52,56.34-49.83,82.34-8.68,73.68,23.83,84.51,93.18,13,97.51,26-4.33,26,4.33,52,43.34,125.68,54.17,143,26,60.68,43.35,41.17,80.17-36.83,88.84-80.18,0-39,8.67-75.84,17.34-54.17,19.5-75.84,13-17.33-4.34-36.84S1257.21,1013.38,1246.38,970Z"/><path class="cls-29" d="M1309.22,621.77v31.9c0,13,19.5,21.67-36.84,34.67s-13-13-43.34-23.83-65-17.34-78-6.5-21.67,8.66-21.67,23.83,23.84,28.17,32.5,39,17.34,41.18-4.33,45.51-49.84-4.33-49.84,19.5-4.33,41.18,13,45.51,62.85-2.17,75.85,8.67,4.33,15.17,30.33,21.67,36.84,8.66,36.84,8.66,17.33,17.34,10.83,30.34-8.66,8.66-8.66,23.84,4.33,23.83,17.34,47.67,15.16,47.67,30.33,56.34,28.17,8.67,56.34,0,56.34-23.84,67.17-13,23.84,36.84,28.18,49.84c2.84,8.53.09,12.39,2.14,17.1A406.89,406.89,0,0,0,1486.8,958C1486.8,818.31,1416.43,695.07,1309.22,621.77Z"/><path class="cls-30" d="M1079.76,551q-15.08,0-29.86,1.09c-44.27,27.45-83.06,51.79-83.06,51.79s-45.5,45.51-43.33,52,8.66,19.5,26,21.67,52,4.33,78-8.67,19.5-21.67,54.17-21.67,28.17,10.84,47.67,0,15.17-6.5,39-23.83,39-10.84,45.5-28.18c2.2-5.86,4.89-12.46,7.49-18.89A406.29,406.29,0,0,0,1079.76,551Z"/><path class="cls-31" d="M1018.83,1262.47c-125.18,0-237.35-55.72-313.1-143.7,62.34,144.84,206.33,246.25,374,246.25,224.8,0,407-182.23,407-407,0-4.19-.08-8.36-.21-12.53a410.75,410.75,0,0,0-67.25-197.28,413.79,413.79,0,0,1,12.5,101.27C1431.84,1077.55,1246.93,1262.47,1018.83,1262.47Z"/><path class="cls-32" d="M669,930.44l246.23-1.81s32.6,0,48.89,21.73l16.29,21.72s76.05,0,92.34,29S1214,1366.78,1214,1366.78l5.43,32.59-331.33-45.26s-173.82-25.35-175.63-32.59S631,1122.36,631,1113.3,669,930.44,669,930.44Z"/></g><g id="truck"><rect class="cls-33" x="274.61" y="1284.07" width="96.57" height="50.7"/><polygon class="cls-34" points="316.86 988.34 316.86 1317.86 0.02 1317.86 0.02 1185.69 39.85 1156.72 57.95 1091.54 105.03 988.34 316.86 988.34"/><path class="cls-35" d="M1151.52,1296.14l-16.29,21.73H347.64v-344H268L255.3,943.08s615.59,7.25,650,7.25c31,0,42.85,24.93,44.92,29.91.23.56.34.87.34.87s30.78,5.43,68.8,10.86,45.26,39.83,45.26,39.83Z"/><path class="cls-36" d="M1003,1293.76H369.35l-.58-151.34-.58-156.23-.05-13.51H892s29.32,7.33,41.65,28.39a39.28,39.28,0,0,1,4.22,10.24c2.86,11.45,13.61,57.87,25.6,109.87C981.82,1200.92,1003,1293.76,1003,1293.76Z"/><g class="cls-37"><polygon class="cls-38" points="534.04 1293.76 450.38 1293.76 368.77 1142.42 368.19 986.18 534.04 1293.76"/><polygon class="cls-39" points="708.2 1293.76 624.55 1293.76 451.42 972.68 535.05 972.68 708.2 1293.76"/><polygon class="cls-40" points="882.35 1293.76 798.71 1293.76 625.56 972.68 709.23 972.68 882.35 1293.76"/><path class="cls-41" d="M1003,1293.76H972.86L799.72,972.68h83.67l80.08,148.5C981.82,1200.92,1003,1293.76,1003,1293.76Z"/></g><rect class="cls-42" x="191.93" y="1183.89" width="45.26" height="10.86"/><path class="cls-43" d="M1151.52,1296.14l-16.29,21.73H1026.14L950.21,980.24c.23.56.34.87.34.87s30.78,5.43,68.8,10.86,45.26,39.83,45.26,39.83Z"/><path class="cls-44" d="M1029.38,1314.25a111.17,111.17,0,0,0-205.19,0H778.62a111.17,111.17,0,0,0-205.19,0H262.61a111.17,111.17,0,0,0-205.19,0H0l13.88,41.84H1091.77l18.87-41.84Z"/><polygon class="cls-45" points="124.94 1019.13 83.3 1100.6 81.49 1156.73 242.63 1156.73 242.63 1020.94 124.94 1019.13"/><path class="cls-46" d="M242.55,1362.08a85.1,85.1,0,1,1-81.55-88.5A85.09,85.09,0,0,1,242.55,1362.08Z"/><path class="cls-47" d="M203.66,1360.49a46.17,46.17,0,1,1-44.25-48A46.17,46.17,0,0,1,203.66,1360.49Z"/><path class="cls-48" d="M184.16,1361.11a27.73,27.73,0,1,1-26.57-28.83A27.73,27.73,0,0,1,184.16,1361.11Z"/><path class="cls-49" d="M760.37,1362.08a85.1,85.1,0,1,1-81.55-88.5A85.09,85.09,0,0,1,760.37,1362.08Z"/><path class="cls-50" d="M721.48,1360.49a46.17,46.17,0,1,1-44.25-48A46.17,46.17,0,0,1,721.48,1360.49Z"/><path class="cls-51" d="M702,1361.11a27.73,27.73,0,1,1-26.58-28.83A27.74,27.74,0,0,1,702,1361.11Z"/><path class="cls-52" d="M1013.85,1362.08a85.1,85.1,0,1,1-81.55-88.5A85.09,85.09,0,0,1,1013.85,1362.08Z"/><path class="cls-53" d="M975,1360.49a46.17,46.17,0,1,1-44.24-48A46.16,46.16,0,0,1,975,1360.49Z"/><path class="cls-54" d="M955.46,1361.11a27.73,27.73,0,1,1-26.58-28.83A27.74,27.74,0,0,1,955.46,1361.11Z"/><g class="cls-55"><path class="cls-56" d="M692.07,1054.76c.9.2,1.79.44,2.7.61,6.38,1.08,11.3,4.16,14.17,10.16,2.18,4.56,4.54,9,7,13.82,2.67-1.19,5.25-2.44,7.88-3.49a10.22,10.22,0,0,1,2.85-.33,14.3,14.3,0,0,1,.28,3.18,7.12,7.12,0,0,1-1.09,2.54c-5.38,9.1-10.81,18.15-16.14,27.26a3,3,0,0,1-3.31,1.8c-11.37-1-22.74-1.85-34.11-2.87-.87-.08-1.66-1.11-2.5-1.71.6-.84,1-2,1.86-2.45,1.8-1.11,3.8-1.89,6.41-3.14-5.95-11.12-11.6-22.15-17.71-32.92-3.24-5.71-8.47-9.39-14.86-11.23a21.64,21.64,0,0,1-2.8-1.23Z"/><path class="cls-56" d="M583.72,1142.34c3.62-6.7,7.24-13.39,11-20.42-2-1.26-4.54-2.68-6.88-4.32-.76-.55-1.73-2.06-1.5-2.46a3.89,3.89,0,0,1,2.7-1.85q17.37-.55,34.77-.78a3.45,3.45,0,0,1,2.55,1.52c5.35,9.84,10.58,19.76,15.83,29.67a4.72,4.72,0,0,1,.71,1.81c.07.67,0,1.72-.36,2a2.59,2.59,0,0,1-2.24.11c-2.22-1.17-4.31-2.54-6.61-3.94-.63.9-1.19,1.62-1.69,2.38-4.76,7.5-9.34,15.11-14.33,22.45-5.15,7.55-9.08,15.28-6.92,24.91-.39-.59-.82-1.16-1.17-1.77-7.07-12.32-14.18-24.62-21.15-37-1.83-3.24-3.19-6.71-4.76-10.09Z"/><path class="cls-56" d="M752.14,1141.21c-3.35,8-9.29,13.27-17.7,14.66-6,1-12.29.36-18.45.36a2.45,2.45,0,0,1-1.72-1.12c-6.61-10.84-13.16-21.7-19.87-32.81,11.74-6.84,23.34-13.57,35.09-20.42a13.32,13.32,0,0,1,1.22,1.44q9.63,14.63,19.18,29.29c.85,1.31,1.51,2.74,2.25,4.12Z"/><path class="cls-56" d="M751.48,1152.71q-8,14.55-16,29.13c-2.92,5.3-5.93,10.58-8.75,16-2.63,5-6.77,7.29-12.26,7.36-5.32.07-10.63,0-16.32,0,0,2.7.16,5.2-.08,7.66-.13,1.31-1,2.53-1.51,3.79-1.27-.74-3-1.17-3.72-2.24-4.49-6.57-8.76-13.26-13.06-19.94-2-3.12-5.37-6.25-5.49-9.48s3.12-6.34,5-9.5c3.84-6.72,7.67-13.46,11.65-20.1.69-1.14,2-1.87,3.08-2.79a23.17,23.17,0,0,1,1.45,4.14,30,30,0,0,1,.07,4.82c.45.23.61.38.77.38,11.22,0,22.43.09,33.64-.12A29.91,29.91,0,0,0,751.48,1152.71Z"/><path class="cls-56" d="M666.16,1163.12v41.55H628.38c-7.53,0-10.91-2.88-12-10.31s0-14.15,4.17-20.36c2.4-3.56,4.1-8.31,7.44-10.3,3-1.77,7.78-.54,11.79-.56C648.45,1163.12,657.14,1163.12,666.16,1163.12Z"/><path class="cls-56" d="M609.09,1095.19c6.75-10.75,13.22-21.24,19.86-31.61,2.46-3.84,9.26-5.48,14.58-3.28a25.9,25.9,0,0,1,8,5.41c5.47,5.39,8.86,12.21,11.92,19.16a2.83,2.83,0,0,1-.24,2.25q-9.65,15.12-19.45,30.14c-.12.22-.38.36-.74.68Z"/></g><path class="cls-57" d="M1133.4,1284.09l-7.24,9.67h-85.69l-57.67-241-9.92-41.45s2.41-3.62,35,3.63,39.83,27.75,39.83,27.75Z"/><path class="cls-58" d="M1133.4,1284.09l-7.24,9.67h-13.4l-130-241-9.92-41.45s2.41-3.62,35,3.63,39.83,27.75,39.83,27.75Z"/><path class="cls-59" d="M23.54,1220.13v38a9.06,9.06,0,0,1-9.06,9H0v-56.13H14.48A9.06,9.06,0,0,1,23.54,1220.13Z"/><path class="cls-60" d="M21.73,1286.21a8.14,8.14,0,0,1-8.15,8.15H0v-16.3H13.58A8.14,8.14,0,0,1,21.73,1286.21Z"/></g><path class="cls-61" d="M1761.26,1366.46h176.17s0-61.45-45.06-43.69-38.24-46.43-69.65-23.22S1761.26,1366.46,1761.26,1366.46Z"/><path class="cls-62" d="M701.12,1476.6H877.29s0-61.45-45.06-43.69-38.24-46.44-69.65-23.22S701.12,1476.6,701.12,1476.6Z"/><path class="cls-63" d="M1610,1483.85h176.16s0-61.46-45.06-43.7-38.24-46.43-69.64-23.22S1610,1483.85,1610,1483.85Z"/><path class="cls-64" d="M1077.72,1480.23h176.16s0-61.46-45.06-43.7-38.24-46.44-69.64-23.22S1077.72,1480.23,1077.72,1480.23Z"/><g id="garbage"><rect class="cls-65" x="1647.76" y="1478.02" width="40.45" height="10.52"/><path class="cls-66" d="M1692.66,1506.74a8.5,8.5,0,0,1-8.5,8.5h0a8.49,8.49,0,0,1-8.49-8.5v-46.11a8.49,8.49,0,0,1,8.49-8.5h0a8.5,8.5,0,0,1,8.5,8.5Z"/><rect class="cls-65" x="1502.52" y="1478.02" width="40.45" height="10.52"/><path class="cls-66" d="M1498.07,1506.74a8.49,8.49,0,0,0,8.49,8.5h0a8.5,8.5,0,0,0,8.5-8.5v-46.11a8.5,8.5,0,0,0-8.5-8.5h0a8.49,8.49,0,0,0-8.49,8.5Z"/><polygon class="cls-67" points="1666.55 1507.87 1524.56 1507.87 1510 1266.36 1683.54 1266.36 1666.55 1507.87"/><path class="cls-68" d="M1673.91,1261.45a11.32,11.32,0,0,1-11.32,11.33H1533.13a11.32,11.32,0,0,1-11.32-11.33h0a11.32,11.32,0,0,1,11.32-11.32h129.46a11.32,11.32,0,0,1,11.32,11.32Z"/><path class="cls-69" d="M1701.49,1270a8.5,8.5,0,0,1-8.5,8.5H1495.18a8.49,8.49,0,0,1-8.5-8.5h0a8.5,8.5,0,0,1,8.5-8.49H1693a8.5,8.5,0,0,1,8.5,8.49Z"/><path class="cls-56" d="M1610.06,1331.8c.48.11,1,.24,1.44.32a9.47,9.47,0,0,1,7.51,5.39c1.16,2.42,2.4,4.78,3.69,7.33,1.42-.63,2.79-1.29,4.18-1.85a5.41,5.41,0,0,1,1.52-.18,8.05,8.05,0,0,1,.14,1.68,3.71,3.71,0,0,1-.58,1.36c-2.85,4.82-5.72,9.62-8.55,14.45a1.62,1.62,0,0,1-1.76,1c-6-.52-12.06-1-18.08-1.52-.48,0-.89-.59-1.33-.9.32-.45.55-1,1-1.31,1-.58,2-1,3.41-1.66-3.16-5.9-6.16-11.74-9.39-17.45a12.8,12.8,0,0,0-7.89-6,12.09,12.09,0,0,1-1.48-.65Z"/><path class="cls-56" d="M1552.62,1378.23l5.85-10.82c-1.08-.68-2.4-1.42-3.64-2.3-.4-.28-.92-1.09-.8-1.3a2.1,2.1,0,0,1,1.43-1q9.22-.3,18.44-.41a1.79,1.79,0,0,1,1.35.81c2.84,5.22,5.61,10.47,8.4,15.72a2.77,2.77,0,0,1,.38,1c0,.35,0,.91-.2,1.06a1.4,1.4,0,0,1-1.2,0c-1.16-.62-2.27-1.35-3.5-2.08-.33.47-.62.86-.88,1.26-2.53,4-5,8-7.61,11.9s-4.81,8.1-3.66,13.21c-.21-.31-.44-.62-.63-.94-3.75-6.53-7.52-13.06-11.21-19.61-1-1.72-1.69-3.56-2.52-5.35Z"/><path class="cls-56" d="M1641.92,1377.64c-1.79,4.22-4.93,7-9.39,7.76-3.19.53-6.52.2-9.79.2a1.34,1.34,0,0,1-.91-.6c-3.5-5.74-7-11.5-10.53-17.4l18.61-10.82a6.53,6.53,0,0,1,.64.77q5.1,7.74,10.17,15.53c.45.69.8,1.45,1.2,2.18Z"/><path class="cls-56" d="M1641.56,1383.73l-8.49,15.44c-1.55,2.82-3.14,5.62-4.64,8.47a6.91,6.91,0,0,1-6.5,3.9c-2.82,0-5.63,0-8.66,0,0,1.43.09,2.76,0,4.06a7.09,7.09,0,0,1-.8,2c-.67-.4-1.57-.62-2-1.2-2.38-3.47-4.64-7-6.92-10.56-1.07-1.65-2.85-3.32-2.92-5s1.66-3.36,2.62-5c2-3.57,4.08-7.14,6.19-10.66a7.74,7.74,0,0,1,1.63-1.48,12.15,12.15,0,0,1,.77,2.19,16.9,16.9,0,0,1,0,2.56c.24.12.33.2.41.2,6,0,11.9.05,17.84-.06A15.86,15.86,0,0,0,1641.56,1383.73Z"/><path class="cls-56" d="M1596.33,1389.25v22h-20c-4,0-5.79-1.52-6.37-5.45a14.86,14.86,0,0,1,2.22-10.8c1.26-1.89,2.16-4.41,3.93-5.47,1.59-.93,4.13-.28,6.26-.29Z"/><path class="cls-56" d="M1566.07,1353.24c3.57-5.71,7-11.26,10.53-16.76,1.31-2,4.91-2.91,7.73-1.74a13.72,13.72,0,0,1,4.25,2.86c2.91,2.86,4.7,6.47,6.32,10.16a1.45,1.45,0,0,1-.12,1.2q-5.12,8-10.31,16a2.2,2.2,0,0,1-.4.36Z"/><rect class="cls-65" x="1418.46" y="1478.02" width="40.46" height="10.53"/><path class="cls-66" d="M1463.36,1506.74a8.49,8.49,0,0,1-8.49,8.5h0a8.49,8.49,0,0,1-8.5-8.5v-46.11a8.5,8.5,0,0,1,8.5-8.5h0a8.5,8.5,0,0,1,8.49,8.5Z"/><rect class="cls-65" x="1273.22" y="1478.02" width="40.45" height="10.53"/><path class="cls-66" d="M1268.77,1506.74a8.5,8.5,0,0,0,8.49,8.5h0a8.49,8.49,0,0,0,8.5-8.5v-46.11a8.5,8.5,0,0,0-8.5-8.5h0a8.5,8.5,0,0,0-8.49,8.5Z"/><polygon class="cls-70" points="1437.25 1507.87 1295.26 1507.87 1280.7 1266.37 1454.24 1266.37 1437.25 1507.87"/><path class="cls-71" d="M1444.27,1261.45a11.32,11.32,0,0,1-11.32,11.33H1303.49a11.32,11.32,0,0,1-11.32-11.33h0a11.33,11.33,0,0,1,11.32-11.33H1433a11.33,11.33,0,0,1,11.32,11.33Z"/><path class="cls-72" d="M1472.19,1270a8.49,8.49,0,0,1-8.5,8.5H1265.88a8.5,8.5,0,0,1-8.5-8.5h0a8.5,8.5,0,0,1,8.5-8.49h197.81a8.5,8.5,0,0,1,8.5,8.49Z"/><path class="cls-56" d="M1380.77,1331.8c.47.11,1,.24,1.43.32a9.51,9.51,0,0,1,7.51,5.39c1.16,2.42,2.4,4.78,3.69,7.33,1.42-.63,2.79-1.29,4.18-1.85a5.78,5.78,0,0,1,1.51-.18,7,7,0,0,1,.15,1.69,3.72,3.72,0,0,1-.57,1.35c-2.86,4.82-5.74,9.62-8.56,14.45a1.61,1.61,0,0,1-1.76,1c-6-.52-12-1-18.08-1.52-.46,0-.89-.59-1.33-.9.32-.45.55-1,1-1.31,1-.58,2-1,3.4-1.66-3.16-5.9-6.15-11.74-9.39-17.45a12.81,12.81,0,0,0-7.88-6,10.34,10.34,0,0,1-1.49-.65Z"/><path class="cls-56" d="M1323.32,1378.24c1.92-3.56,3.84-7.1,5.86-10.83-1.09-.67-2.41-1.42-3.65-2.29-.4-.29-.92-1.1-.79-1.31a2,2,0,0,1,1.43-1q9.21-.28,18.43-.41a1.8,1.8,0,0,1,1.35.81c2.84,5.21,5.61,10.47,8.4,15.73a2.52,2.52,0,0,1,.37,1c0,.35,0,.91-.19,1a1.38,1.38,0,0,1-1.19.07c-1.17-.63-2.28-1.35-3.5-2.09-.34.47-.63.86-.89,1.26-2.53,4-5,8-7.6,11.9s-4.82,8.1-3.67,13.21c-.21-.31-.43-.62-.62-.94-3.75-6.53-7.52-13.05-11.22-19.61-1-1.71-1.69-3.56-2.52-5.35Z"/><path class="cls-56" d="M1412.61,1377.64c-1.77,4.22-4.92,7-9.38,7.77-3.19.52-6.52.19-9.78.19a1.36,1.36,0,0,1-.92-.59c-3.5-5.75-7-11.51-10.53-17.4l18.6-10.83a6.48,6.48,0,0,1,.65.77q5.1,7.74,10.17,15.53c.45.69.8,1.45,1.19,2.18Z"/><path class="cls-56" d="M1412.26,1383.73l-8.49,15.44c-1.55,2.82-3.14,5.62-4.64,8.47a6.93,6.93,0,0,1-6.5,3.91c-2.82,0-5.63,0-8.65,0,0,1.43.08,2.75,0,4.06a7.7,7.7,0,0,1-.79,2c-.68-.4-1.58-.62-2-1.19-2.38-3.48-4.64-7-6.92-10.57-1.07-1.66-2.85-3.32-2.91-5s1.65-3.36,2.62-5c2-3.57,4.07-7.14,6.18-10.66a7.56,7.56,0,0,1,1.64-1.48,11.94,11.94,0,0,1,.76,2.2,15.6,15.6,0,0,1,0,2.55c.24.12.32.2.41.2,6,0,11.89.05,17.83-.06A15.86,15.86,0,0,0,1412.26,1383.73Z"/><path class="cls-56" d="M1367,1389.25v22h-20c-4,0-5.78-1.53-6.37-5.46a14.85,14.85,0,0,1,2.21-10.8c1.27-1.89,2.18-4.41,4-5.46,1.58-.94,4.12-.29,6.25-.3Z"/><path class="cls-56" d="M1336.77,1353.24c3.58-5.71,7-11.26,10.53-16.76,1.31-2,4.91-2.91,7.73-1.74a13.76,13.76,0,0,1,4.26,2.86c2.9,2.86,4.69,6.48,6.32,10.16a1.49,1.49,0,0,1-.13,1.2q-5.12,8-10.31,16a2.44,2.44,0,0,1-.39.36Z"/><rect class="cls-65" x="951.7" y="1478.02" width="40.46" height="10.52"/><path class="cls-66" d="M996.61,1506.74a8.5,8.5,0,0,1-8.49,8.5h0a8.5,8.5,0,0,1-8.51-8.5v-46.11a8.5,8.5,0,0,1,8.51-8.5h0a8.5,8.5,0,0,1,8.49,8.5Z"/><rect class="cls-65" x="806.46" y="1478.02" width="40.46" height="10.52"/><path class="cls-66" d="M802,1506.74a8.49,8.49,0,0,0,8.5,8.5h0a8.5,8.5,0,0,0,8.49-8.5v-46.11a8.5,8.5,0,0,0-8.49-8.5h0a8.49,8.49,0,0,0-8.5,8.5Z"/><polygon class="cls-73" points="970.49 1507.87 828.5 1507.87 813.94 1266.36 987.49 1266.36 970.49 1507.87"/><path class="cls-74" d="M976.15,1261.45a11.32,11.32,0,0,1-11.32,11.33H835.37A11.33,11.33,0,0,1,824,1261.45h0a11.32,11.32,0,0,1,11.33-11.32H964.83a11.32,11.32,0,0,1,11.32,11.32Z"/><path class="cls-75" d="M1005.44,1270a8.5,8.5,0,0,1-8.5,8.5H799.12a8.49,8.49,0,0,1-8.49-8.5h0a8.49,8.49,0,0,1,8.49-8.49H996.94a8.5,8.5,0,0,1,8.5,8.49Z"/><path class="cls-56" d="M914,1331.8c.48.11,1,.24,1.44.32a9.49,9.49,0,0,1,7.51,5.39c1.16,2.42,2.4,4.78,3.69,7.33,1.42-.63,2.78-1.29,4.18-1.85a5.41,5.41,0,0,1,1.52-.18,8.79,8.79,0,0,1,.14,1.68,3.71,3.71,0,0,1-.58,1.36c-2.85,4.82-5.72,9.62-8.55,14.45a1.63,1.63,0,0,1-1.77,1c-6-.52-12.05-1-18.07-1.52-.47,0-.89-.59-1.33-.9.32-.45.55-1,1-1.31,1-.58,2-1,3.41-1.66-3.16-5.9-6.16-11.74-9.39-17.45a12.83,12.83,0,0,0-7.89-6,12.09,12.09,0,0,1-1.48-.65Z"/><path class="cls-56" d="M856.56,1378.23c1.93-3.55,3.85-7.1,5.86-10.82-1.08-.68-2.4-1.42-3.64-2.3-.41-.28-.92-1.09-.79-1.3a2.06,2.06,0,0,1,1.42-1q9.23-.3,18.44-.41a1.79,1.79,0,0,1,1.35.81c2.84,5.22,5.61,10.47,8.4,15.72a3,3,0,0,1,.38,1c0,.35,0,.91-.21,1.06a1.38,1.38,0,0,1-1.19,0c-1.16-.62-2.27-1.35-3.5-2.08-.33.47-.63.86-.88,1.26-2.54,4-5,8-7.61,11.9s-4.81,8.1-3.66,13.21a11,11,0,0,1-.63-.94c-3.74-6.53-7.52-13.06-11.22-19.61-1-1.72-1.68-3.56-2.52-5.35Z"/><path class="cls-56" d="M945.86,1377.64c-1.77,4.22-4.92,7-9.39,7.76-3.18.53-6.51.2-9.78.2a1.32,1.32,0,0,1-.91-.6c-3.51-5.74-7-11.5-10.53-17.4l18.6-10.82a5.77,5.77,0,0,1,.65.77q5.1,7.74,10.16,15.53c.45.69.81,1.45,1.2,2.18Z"/><path class="cls-56" d="M945.51,1383.73,937,1399.17c-1.55,2.82-3.14,5.62-4.64,8.47a6.91,6.91,0,0,1-6.51,3.9c-2.81,0-5.62,0-8.65,0,0,1.43.09,2.76,0,4.06a7.4,7.4,0,0,1-.8,2c-.67-.4-1.58-.62-2-1.2-2.38-3.47-4.64-7-6.92-10.56-1.07-1.65-2.85-3.32-2.91-5s1.66-3.36,2.61-5c2-3.57,4.08-7.14,6.19-10.66a7.27,7.27,0,0,1,1.63-1.48,12.15,12.15,0,0,1,.77,2.19,16.9,16.9,0,0,1,0,2.56c.24.12.33.2.42.2,5.93,0,11.88.05,17.83-.06A15.86,15.86,0,0,0,945.51,1383.73Z"/><path class="cls-56" d="M900.28,1389.25v22h-20c-4,0-5.79-1.52-6.37-5.45a14.85,14.85,0,0,1,2.21-10.8c1.27-1.89,2.17-4.41,3.94-5.47,1.58-.93,4.13-.28,6.25-.29Z"/><path class="cls-56" d="M870,1353.24c3.58-5.71,7-11.26,10.53-16.76,1.31-2,4.91-2.91,7.73-1.74a13.72,13.72,0,0,1,4.25,2.86c2.91,2.86,4.7,6.47,6.33,10.16a1.53,1.53,0,0,1-.13,1.2q-5.13,8-10.31,16a3.24,3.24,0,0,1-.4.36Z"/><rect class="cls-65" x="1186.88" y="1478.03" width="40.45" height="10.52"/><path class="cls-66" d="M1231.78,1506.74a8.49,8.49,0,0,1-8.49,8.5h0a8.5,8.5,0,0,1-8.5-8.5v-46.11a8.51,8.51,0,0,1,8.5-8.5h0a8.5,8.5,0,0,1,8.49,8.5Z"/><rect class="cls-65" x="1041.64" y="1478.03" width="40.45" height="10.52"/><path class="cls-66" d="M1037.19,1506.74a8.5,8.5,0,0,0,8.5,8.5h0a8.49,8.49,0,0,0,8.49-8.5v-46.11a8.5,8.5,0,0,0-8.49-8.5h0a8.51,8.51,0,0,0-8.5,8.5Z"/><polygon class="cls-76" points="1205.67 1507.87 1063.68 1507.87 1049.12 1266.37 1222.66 1266.37 1205.67 1507.87"/><path class="cls-77" d="M1212.7,1261.45a11.33,11.33,0,0,1-11.33,11.33H1071.91a11.33,11.33,0,0,1-11.33-11.33h0a11.34,11.34,0,0,1,11.33-11.33h129.46a11.33,11.33,0,0,1,11.33,11.33Z"/><path class="cls-78" d="M1240.61,1270a8.49,8.49,0,0,1-8.49,8.5H1034.3a8.49,8.49,0,0,1-8.49-8.5h0a8.49,8.49,0,0,1,8.49-8.49h197.82a8.49,8.49,0,0,1,8.49,8.49Z"/><path class="cls-56" d="M1149.19,1331.8c.48.11,1,.24,1.43.32a9.47,9.47,0,0,1,7.51,5.39c1.16,2.42,2.41,4.78,3.7,7.33,1.42-.63,2.78-1.29,4.18-1.85a5.73,5.73,0,0,1,1.51-.18,7.52,7.52,0,0,1,.14,1.69,3.72,3.72,0,0,1-.57,1.35c-2.85,4.82-5.74,9.62-8.56,14.45a1.61,1.61,0,0,1-1.76,1c-6-.52-12-1-18.07-1.52-.47,0-.9-.59-1.34-.9.32-.45.56-1,1-1.31,1-.58,2-1,3.4-1.66-3.15-5.9-6.15-11.74-9.39-17.45a12.76,12.76,0,0,0-7.88-6,11.48,11.48,0,0,1-1.49-.66Z"/><path class="cls-56" d="M1091.74,1378.23l5.86-10.82c-1.08-.67-2.41-1.42-3.65-2.3-.4-.28-.92-1.09-.79-1.3a2.08,2.08,0,0,1,1.43-1q9.21-.3,18.43-.41a1.77,1.77,0,0,1,1.35.81c2.84,5.21,5.62,10.47,8.4,15.72a2.59,2.59,0,0,1,.38,1c0,.36,0,.91-.2,1a1.33,1.33,0,0,1-1.18.06c-1.17-.62-2.29-1.34-3.51-2.08-.34.47-.63.86-.89,1.26-2.52,4-5,8-7.61,11.9s-4.8,8.1-3.66,13.21c-.21-.31-.43-.62-.62-.94-3.75-6.53-7.52-13.05-11.22-19.61-1-1.72-1.69-3.56-2.52-5.34Z"/><path class="cls-56" d="M1181,1377.64c-1.78,4.22-4.93,7-9.39,7.77-3.19.52-6.52.19-9.78.19a1.36,1.36,0,0,1-.92-.59c-3.49-5.75-7-11.51-10.52-17.4l18.6-10.83a7.5,7.5,0,0,1,.65.76q5.08,7.76,10.16,15.54c.45.69.8,1.45,1.2,2.18Z"/><path class="cls-56" d="M1180.69,1383.73q-4.26,7.71-8.49,15.44c-1.55,2.82-3.15,5.62-4.64,8.46a6.94,6.94,0,0,1-6.51,3.92c-2.81,0-5.63,0-8.65,0,0,1.43.09,2.76,0,4.06a7.74,7.74,0,0,1-.8,2c-.67-.4-1.58-.62-2-1.2-2.38-3.47-4.64-7-6.93-10.56-1.07-1.66-2.84-3.32-2.91-5s1.66-3.36,2.62-5c2-3.57,4.07-7.14,6.19-10.66a6.85,6.85,0,0,1,1.63-1.48,12.11,12.11,0,0,1,.76,2.19,15.72,15.72,0,0,1,0,2.56c.24.12.32.2.41.2,5.95,0,11.89.05,17.83-.06A15.86,15.86,0,0,0,1180.69,1383.73Z"/><path class="cls-56" d="M1135.45,1389.25v22h-20c-4,0-5.78-1.53-6.37-5.46a15,15,0,0,1,2.21-10.8c1.27-1.89,2.17-4.41,4-5.46,1.58-.94,4.13-.29,6.25-.3Z"/><path class="cls-56" d="M1105.2,1353.24c3.56-5.71,7-11.26,10.52-16.76,1.31-2,4.91-2.91,7.73-1.74a13.76,13.76,0,0,1,4.26,2.86c2.9,2.86,4.7,6.48,6.32,10.16a1.49,1.49,0,0,1-.13,1.2c-3.41,5.34-6.86,10.66-10.3,16a2.62,2.62,0,0,1-.4.36Z"/></g><g id="man_2" data-name="man 2"><path class="cls-79" d="M739.09,946.63a9.1,9.1,0,0,0,1.26,2.61H698.43V934.72l11.66-1.47s25.61,3.68,27.9,10.33C738.43,944.86,738.79,945.85,739.09,946.63Z"/><path class="cls-80" d="M740.51,949.24s0,.12-.16,0Z"/><path class="cls-81" d="M688,945.73c1,2.59,1.4,3.33,1.6,3.51H647.67V934.72l11.67-1.47s25.61,3.68,27.9,10.33C687.53,944.41,687.78,945.12,688,945.73Z"/><path class="cls-82" d="M689.76,949.24s0,.12-.16,0Z"/><path class="cls-83" d="M687.7,703.45,679,698.33s1.69-2,2.15-6.93a28.42,28.42,0,0,0,0-5c-.27-3.56,1-5.34,2.51-6.19a7.87,7.87,0,0,1,4.85-.63l2.92,1.86a42.6,42.6,0,0,1,4.23,2.83c-.65-.21-.65.63-.65.63s-1.41,9-.49,12.7c.22.9.59,1.5,1.14,1.58C698.52,699.61,687.7,703.45,687.7,703.45Z"/><path class="cls-84" d="M695.71,684.27c-.65-.21-.65.63-.65.63s-1.41,9-.49,12.7a4.34,4.34,0,0,1-2.2-2.29c-.49-2.15-2.43-1-6.55-1a5.83,5.83,0,0,1-4.64-3,28.42,28.42,0,0,0,0-5c-.27-3.56,1-5.34,2.51-6.19,2.4.33,5.3.8,7.77,1.23A42.6,42.6,0,0,1,695.71,684.27Z"/><path class="cls-85" d="M711.54,933.35l-13,2.12s-.12-3.68.06-17.62c.07-5.6.18-12.86.38-22.2.87-41.34-12.34-80.76-12.34-80.76l-10.43-10-17.82-17.14,15.26-6.07,21.18,3.23,16.3,2.49.19,0s15.68,48.54,17,67.49C730,879.6,711.54,933.35,711.54,933.35Z"/><path class="cls-86" d="M712.44,860.94c-6.15,12.73-10.36,13-7.12,23.89,2.78,9.32-.43,21.48-6.75,33,.07-5.6.18-12.86.38-22.2.87-41.34-12.34-80.76-12.34-80.76l-10.43-10c5.39-5.89,12.94-14,18.62-20,4.31-4.53,7.53-7.83,7.93-8l7.12-3.5,1.25,14-.28,1.9s-13.27,18.79-9.71,33.76S718.58,848.2,712.44,860.94Z"/><path class="cls-87" d="M780,696.38c-2.22,4.12-5.72,8.22-6.72,9.7-1.8,2.67-39,41.51-46.64,40.63-3.17-.38-8.69-5.18-14.07-10.7-7.68-7.83-15.07-17.1-15.07-17.1l-.29-6.42-.6-13.14s10.62-1.56,18.29,9.56c2.11,3.07,4,5.89,5.56,8.35.42.65.83,1.28,1.21,1.89l.18.28c3.28,5.2,5,8.38,5,8.38l36.5-29.43s1.24-9.12,4-8.38c1.91.51,1,5.56.87,6,.51-.72,8.43-12.86,12.69-8.21C782.71,689.76,781.75,693.08,780,696.38Z"/><path class="cls-88" d="M771.25,706.54c1.73-1.94,5.7-5.66,8.72-10.16-2.22,4.12-5.72,8.22-6.72,9.7-1.8,2.67-39,41.51-46.64,40.63-3.17-.38-8.69-5.18-14.07-10.7-7.68-7.83-15.07-17.1-15.07-17.1l-.29-6.42,23.25,4.77-.15,1s1.41.19,1.34,1.19c-.29,3.93-1.2,13.49-3.52,15.77-2.91,2.87,1.7,6,5.34,3.82s9.95-7.64,14.56-7.4,11.89-9.55,13.59-12.42S767.85,710.36,771.25,706.54Z"/><path class="cls-89" d="M689.05,816.72s1.36,40.77-3.41,66.06c-2.87,15.29-24,51.05-24,51.05L647.59,935s2-6.9,4.48-17c2.77-11.55,6-27.29,7.26-41.75,1.77-20.52,3-44.15,1.89-62.32-.27-4.37-.67-8.43-1.24-12-2.59-16.63-1.73-13.43-1.73-13.43l53.37-.11Z"/><path class="cls-90" d="M703.37,672.07c0,12.24-10.92,19.82-15.9,19.82-4.76,0-17.44-7.58-17.44-19.82s7.46-22.17,16.67-22.17a14,14,0,0,1,9.45,3.91,21.89,21.89,0,0,1,5.72,9.07A28.38,28.38,0,0,1,703.37,672.07Z"/><path class="cls-91" d="M652.07,918c2.77-11.55,6-27.29,7.26-41.75,1.77-20.52,3-44.15,1.89-62.32,2.13,12.44,4.77,25.08,7.21,28.52,5.17,7.32,5.82,12.1.32,24.21s1.94,16.24,3.88,21C674.3,891.79,664.5,905.53,652.07,918Z"/><path class="cls-92" d="M701.87,662.88c-3.51,1.45-9,3.45-14.19,3.44-3.55,0-4.49-.54-4.7-.6l-.8,8.41-2.11-.32-1.94-11s.16-5.09.81-5.41,7.45-3,10.84-3.35c1.43-.13,3.94-.21,6.37-.25A21.89,21.89,0,0,1,701.87,662.88Z"/><path class="cls-93" d="M721.82,719.43l-.2.53a56.88,56.88,0,0,1-9.08,16c-7.68-7.83-15.07-17.1-15.07-17.1l-.89-19.56a15.08,15.08,0,0,1,4.3.17c3.79.63,9.41,2.75,14,9.39C717.63,712.93,720,716.5,721.82,719.43Z"/><path class="cls-94" d="M710.48,653.67c-1,5.61-7.8,9.25-29.85,10v10.23l-3-.14c0-.22,0-.44,0-.65,0-3-1.85-5.48-4.12-5.48s-3.35,2.25-3.35,5.28c0,1.37,1.57,2.87,2.52,3.94l-1.09,3c-3.56-4.75-9.46-13.3-6.91-23.35a6.18,6.18,0,0,1,3.81-4.53,6.51,6.51,0,0,1,2.45-.43s36.32-32.21,39.63-.68A10.3,10.3,0,0,1,710.48,653.67Z"/><path class="cls-95" d="M721.62,720a56.88,56.88,0,0,1-9.08,16c-7.68-7.83-15.07-17.1-15.07-17.1l-.89-19.56a15.08,15.08,0,0,1,4.3.17c4.23,2.52,9.92,6.71,11.39,11.79,2.43,8.37,2.43,13.14,6.31,10.76A29.72,29.72,0,0,0,721.62,720Z"/><path class="cls-96" d="M712.3,778c-.39,6.27-.68,10.34-.68,10.34l-53.37.11-.85-78v-1.26s5-8.74,13.42-10.46,9.3-1.49,9.3-1.49,4.12,3.84,8.45,3.41a13.21,13.21,0,0,0,6.5-2.12s18.4,2.12,19.05,24.08C714.56,737.88,713.18,763.69,712.3,778Z"/><path class="cls-97" d="M712.3,778c-.39,6.27-.68,10.34-.68,10.34l-53.37.11-.85-78a11,11,0,0,0,2-1.07l18.45-6s3.4,22.46-3.89,35.59-6.31,18.4.25,18.88,9.71,4.06,11.65,12.18,10.19,3.34,14.56,6.69C704.31,779.78,709.23,782.4,712.3,778Z"/><polygon class="cls-98" points="697.25 802.83 652.12 818.39 641.4 788.29 650.09 785.29 686.54 772.72 697.14 802.5 697.25 802.83"/><path class="cls-99" d="M697.25,802.83l-45.13,15.56-10.72-30.1,8.69-3c-1.54,3.09-2.45,7.12.86,10,6.15,5.42,18.45,5.1,19.09,8.92.49,2.89,17.84,3.23,27.1-1.75Z"/><path class="cls-100" d="M682.23,816.56c-4.51,3.29-14.64-12.33-14.64-12.33s-10-13.45-19.3-45.1a61.51,61.51,0,0,1-2.38-25.47c.05-.39.11-.76.16-1.14.1-.59.2-1.16.31-1.74a49,49,0,0,1,12.94-24.95c2.63-2.84,8.5-8.84,14.38-6.38,9.15,3.81,4,17.19-1.53,29.16-2.38,5.12-4.84,10-6.29,13.73a14.19,14.19,0,0,0-.82,3.77c-1,10.3,4.34,29.07,8.06,40.55,1.88,5.83,3.35,9.77,3.35,9.77s8.32,3.92,7.25,5.48c-1.66,2.49-4.93.25-5.28,0C679,802.52,688.31,812.14,682.23,816.56Z"/><path class="cls-101" d="M673.12,786.66c-1.44-1.17-3-2.55-4.78-4.16-10.92-10-5.58-13.37-5.09-21.26s-2-9.08-7.77-10.75c-4.52-1.29-8.16-12.06-9.57-16.83.05-.39.11-.76.16-1.14.1-.59.2-1.16.31-1.74l8.86-4.89c.48.71,11.16,1.43,15.53,2.39.48.1,1,.21,1.4.33-2.38,5.12-4.84,10-6.29,13.73a14.19,14.19,0,0,0-.82,3.77C664,756.41,669.4,775.18,673.12,786.66Z"/><path class="cls-102" d="M665.88,742.34a14.19,14.19,0,0,0-.82,3.77,5.83,5.83,0,0,1-.84-.07c-5.9-.76-13-7.63-17.92-13.26l-.23-.26a49,49,0,0,1,13.25-26.69c2.63-2.84,8.5-8.84,14.38-6.38a8.15,8.15,0,0,1,2.68,1.75C684.17,709,670.33,730.86,665.88,742.34Z"/><path class="cls-103" d="M710.48,653.67c-1,5.61-7.8,9.25-29.85,10v10.23l-3-.14c0-.22,0-.44,0-.65,0-3-1.85-5.48-4.12-5.48s-3.35,2.25-3.35,5.28c0,1.37,1.57,2.87,2.52,3.94l-1.09,3c-3.56-4.75-9.46-13.3-6.91-23.35a6.18,6.18,0,0,1,3.81-4.53c-2,2.58-5.08,7.26-1.83,8.17,4.53,1.28,4.53-6.68,7.77-3.5s8.25,5.58,12,2.87,6.63-3.67,13.91-3.82C704.2,655.58,708.33,655.67,710.48,653.67Z"/><path class="cls-104" d="M665.88,742.34a14.19,14.19,0,0,0-.82,3.77,5.83,5.83,0,0,1-.84-.07c-5.9-.76-13-7.63-17.92-13.26,3,.35,7.2,1,12.09,1.94,9.46,1.91,7.52-5,8-13.85s2.91-6,7.52-10.75a10.39,10.39,0,0,0,2.46-8.92C684.17,709,670.33,730.86,665.88,742.34Z"/><path class="cls-105" d="M739.09,946.63a9.1,9.1,0,0,0,1.26,2.61H698.43v-11.9c1.28,3.2,3.88,6.81,9,6.4,9-.71,16.26-2.14,18.2.25C727.16,945.89,735,947.48,739.09,946.63Z"/><path class="cls-80" d="M740.51,949.24s0,.12-.16,0Z"/><path class="cls-106" d="M688,945.73c1,2.59,1.4,3.33,1.6,3.51H647.67V937.41c1.38,1.34,2.65,5.71,7.08,5.62,12.14-.24,19.9-3.82,26.21,2.87C682.24,947.25,685.46,946.92,688,945.73Z"/><path class="cls-82" d="M689.6,949.24h.16S689.73,949.36,689.6,949.24Z"/></g><g id="man_3" data-name="man 3"><path class="cls-107" d="M1624.25,1156.82l109.09,358.86c1,3.21,7.55,4,7.74,4,32.77-1.14,103.53-3.56,103.53-3.56,1.55-.56,5.06-1.62,1-9.76l-106.83-355.64c-.92-2.3-1.61-4.61-6.51-4.59l-104.08,2.38a6.51,6.51,0,0,0-3.6,3.29A6.9,6.9,0,0,0,1624.25,1156.82Zm200.83,311.7-92,3.53-18.4-60.51,92-3.54ZM1711,1399.43l-18.4-60.51,92-3.54,18.4,60.51Zm-22.09-72.61-18.38-60.51,92-3.54,18.39,60.51Zm-22.06-72.62-18.41-60.52,92-3.53,18.4,60.51Zm63-99,6.93,22.81-92,3.55-6.93-22.81Zm13.35,350.09-6.44-21.16,92-3.53,6.43,21.14Z"/><path class="cls-108" d="M1763.91,1381.33v17.5h-43.08s8.75-11,19.76-11.65,10.58-4.55,10.58-4.55Z"/><path class="cls-108" d="M1815.71,1381.33v17.5h-43.07s8.75-11,19.77-11.65,10.57-4.55,10.57-4.55Z"/><path class="cls-109" d="M1768.44,1131.12s2.16,14-.65,14.46,8,4.33,8,4.33l8.64-5.19s-2.81-3.45-2.16-12.09-7.34-6.91-7.34-6.91-7.77,5-7.12,4.75S1768.44,1131.12,1768.44,1131.12Z"/><path class="cls-110" d="M1805,1235.29l-28.16,27.52s-13.18,39.94-12.31,81.82c.67,33,.42,39.3.42,39.3l-13.81-1.3s-11.23-56.56-9.49-81.6c1.32-19.21,10.57-66.07,10.57-66.07l37.56-5.83Z"/><path class="cls-111" d="M1766.91,1145.75l-.89,19.82s-6.31,8-13.3,15.54c-.57.61-1.13,1.21-1.7,1.8-5.38,5.57-10.89,10.46-14,10.82-4,.47-15.88-10.47-26.43-21.34-9.51-9.78-18-19.5-18.86-20.79-1.8-2.7-14.64-14.63-10.58-19.14,4.25-4.71,12.53,7.13,13,7.85-.14-.44-1.63-4.51.92-5.38,2.72-.89,4.29,8.35,4.29,8.35l37.38,31.3s1.75-3.22,5-8.47a1.74,1.74,0,0,1,.11-.18c.25-.39.51-.81.76-1.23,1.69-2.68,3.74-5.81,6.06-9.27C1756.34,1144.18,1766.91,1145.75,1766.91,1145.75Z"/><path class="cls-112" d="M1774.42,1264.67s.28,40.84,5,66.47c2.87,15.49,22.35,51.82,22.35,51.82l13.91-1.63s-9.33-28.84-11.66-56.34c-2.17-25.77-3.55-56.41-.63-75.34,2.58-16.85,1.72-13.6,1.72-13.6l-53.22-.12Z"/><path class="cls-113" d="M1760,1116.55c0,12.4,11.65,22.45,16.62,22.45,4.74,0,16.61-10,16.61-22.45s-7.44-22.46-16.61-22.46S1760,1104.16,1760,1116.55Z"/><path class="cls-114" d="M1741.75,1166.1a58.5,58.5,0,0,0,9.26,16.8c7.65-7.94,15-17.33,15-17.33l.9-19.82s-10.59-1.58-18.25,9.69C1745.92,1159.51,1743.59,1163.13,1741.75,1166.1Z"/><path class="cls-115" d="M1789.15,1128.74l-1-5.3h0c1.18,0,5-3,5-6.06s-1.08-5.35-3.36-5.35-4.1,2.49-4.1,5.55c0,.22,0,.42,0,.64l-3,.15V1108s-24.3,7.76-29.48-1.32a20.75,20.75,0,0,1-1.55-3.3c-2.32-6.65,4.2-13.26,9.55-14.09,18.78-3,27.62,5.1,27.62,5.1a18.11,18.11,0,0,1,4.7,2,8.77,8.77,0,0,1,4.26,5.16C1802,1118.38,1789.15,1128.74,1789.15,1128.74Z"/><path class="cls-116" d="M1806,1155.72l-.84,80.33-53.23-.12s-.67-9.34-1.32-21.59c-.76-14.46-1.51-33-1.17-45,.64-22.24,19-24.4,19-24.4a12.73,12.73,0,0,0,6.45,2.16c4.33.43,8.45-3.46,8.45-3.46s.85-.2,9.26,1.52c5.59,1.15,9.65,5.42,11.75,8.18A21.35,21.35,0,0,1,1806,1155.72Z"/><path class="cls-117" d="M1802.88,1167a50.22,50.22,0,0,1-13.05,22.52c-1,1-2,1.93-3.14,2.87-5.76,4.84-13.57,9.28-24.16,12.18-21.25,5.84-35.82,7.19-43.24,7.46-3.82.11-5.76,0-5.76,0s-18.78-.37-18.28-5.94c.64-7.5,13.78-4.71,14.63-4.5-.41-.18-4.05-1.78-2.75-4.5.8-1.74,8.5,3.28,8.5,3.28s36.8-7.4,49.43-16.9c.21-.15.4-.31.59-.46a13.37,13.37,0,0,0,2.23-2.22c.71-.91,1.45-1.94,2.23-3.06,8.31-12,20.26-33.8,30.8-26.27C1806.08,1155.11,1804,1163.27,1802.88,1167Z"/><path class="cls-118" d="M1789.83,1189.51c-1,1-2,1.93-3.14,2.87-5.76,4.84-13.57,9.28-24.16,12.18-21.25,5.84-35.82,7.19-43.24,7.46,4.33-2.21,8.68-4.44,11.33-6,6.85-3.93,12.25-2.46,20.09-5.4s15.69-.49,19.12-6.86c1.88-3.5-1.09-7.74-4.18-10.84a13.37,13.37,0,0,0,2.23-2.22c.71-.91,1.45-1.94,2.23-3.06Z"/><path class="cls-119" d="M1806,1155.72l-.84,80.33-53.23-.12s-.67-9.34-1.32-21.59c2.46,2.28,4.7,10.62,8.45,12.29,8.83,3.93,23-13.23,30.4-13.23s7.35-14.23,6.85-21.58-10.77.5-10.77.5l2.93-22.06,8.34-9.81,7.56-7.12A21.35,21.35,0,0,1,1806,1155.72Z"/><path class="cls-120" d="M1767.89,1180.73a14.69,14.69,0,0,1-2.83,2.68,6.79,6.79,0,0,0,.49.67c3.8,4.69,13.65,7.09,21.14,8.3a50,50,0,0,0,16.18-25.38c1.08-3.73,3.22-11.9-2-15.6C1789.4,1143.16,1776.21,1170,1767.89,1180.73Z"/><path class="cls-121" d="M1789.15,1128.74l-1-5.3h0c1.18,0,5-3,5-6.06s-1.08-5.35-3.36-5.35-4.1,2.49-4.1,5.55c0,.22,0,.42,0,.64l-3,.15V1108s-24.3,7.76-29.48-1.32a20.75,20.75,0,0,1-1.55-3.3,17.94,17.94,0,0,1,3,1.15c17.66,8.33,21.08-1,26-3.43s3,.48,9.32,4.41c3.33,2.06,3.85-3.45,3.59-9.16a8.77,8.77,0,0,1,4.26,5.16C1802,1118.38,1789.15,1128.74,1789.15,1128.74Z"/><path class="cls-122" d="M1752.72,1181.11c-.57.61-1.13,1.21-1.7,1.8-5.38,5.57-10.89,10.46-14,10.82-4,.47-15.88-10.47-26.43-21.34,2.34.38,4.49.83,6.33,1.29,13.24,3.43,9.33,9.82,19.62,8.83,7.31-.71,6.45-10.8,5.36-16.58-.45-2.36-.95-4-.95-4l1.71,2.78Z"/><polygon class="cls-123" points="1702.23 1134.65 1683.25 1161.25 1706.38 1211.64 1725.35 1185.04 1702.23 1134.65"/><polygon class="cls-124" points="1705.66 1134.08 1686.67 1160.67 1709.8 1211.07 1728.78 1184.46 1705.66 1134.08"/><polygon class="cls-125" points="1706.29 1123.99 1687.31 1150.59 1710.43 1200.98 1729.41 1174.38 1706.29 1123.99"/><polygon class="cls-126" points="1714.59 1129.81 1695.6 1156.4 1718.73 1206.8 1737.71 1180.19 1714.59 1129.81"/></g><path class="cls-127" d="M1050.27,35.08l8.27-16.91-10.63-8.51-14.46,12a46.4,46.4,0,0,0-13.89-4L1013.25,0,999.64,1.38l-1.59,18.77a45.64,45.64,0,0,0-13.16,7.41L967.6,19.37,959,29.83l12.8,14.88a44.14,44.14,0,0,0-3.46,13.06l-18.49,6.38,1.41,13.4,20.1,1.64a44.79,44.79,0,0,0,5.86,10.32l-9.51,17.27,10.62,8.5,16-12a46.25,46.25,0,0,0,12.73,3.84l5.68,18.81,13.61-1.38,2.62-19.43a45.38,45.38,0,0,0,11.22-5.63l17.52,9.35,8.63-10.46-11.73-15.08A43.88,43.88,0,0,0,1059,70.19l18.71-5.47-1.4-13.4-18.76-2.45A44.43,44.43,0,0,0,1050.27,35.08Zm-34.59,51.26a22.34,22.34,0,1,1,20.24-24.5A22.59,22.59,0,0,1,1015.68,86.34Z"/><path class="cls-128" d="M1136.6,92.55l6.22-12.73-8-6.4-10.88,9.06a34.75,34.75,0,0,0-10.45-3l-4.74-13.34-10.26,1-1.19,14.13a34.44,34.44,0,0,0-9.91,5.56l-13-6.16-6.51,7.88,9.64,11.19a33.44,33.44,0,0,0-2.61,9.83l-13.91,4.8,1.06,10.08,15.13,1.24a33.06,33.06,0,0,0,4.41,7.77l-7.17,13,8,6.4,12-9.06a34,34,0,0,0,9.59,2.89l4.27,14.16,10.24-1,2-14.62A34.43,34.43,0,0,0,1129,141l13.19,7,6.49-7.88-8.82-11.34a32.94,32.94,0,0,0,3.36-9.84l14.09-4.11-1.06-10.1-14.11-1.84A33.53,33.53,0,0,0,1136.6,92.55Zm-26,38.56a16.8,16.8,0,1,1,15.23-18.43A17,17,0,0,1,1110.57,131.11Z"/><path class="cls-129" d="M1523,302.77a26.66,26.66,0,0,0-16.75-49.84L1494.43,256l-5.76-10.91A26.65,26.65,0,0,0,1438.48,262s1,3.58,1.47,4.72l19.38,57.64,56.35-18.95A58.52,58.52,0,0,0,1523,302.77Z"/><path class="cls-130" d="M566.38,307.08a45.17,45.17,0,0,0,16.37,12.65c11.13,5.75,24.22,9.57,28.1,10.08,2.41.31,6.07,2.87,9.65,5.87a143.77,143.77,0,0,1,10.88,10.37l12.85-4.47,3.13,4.06,3.88-6.49,7.16-2.5-3.35-3.88,7-11.68s-12.19-17.22-11.74-23.39c.29-4.16-.95-19.38-4.89-32a45.82,45.82,0,0,0-1.8-5,34.16,34.16,0,0,0-4.61-8.35c-.64-.92-1.31-1.84-2-2.73a45.52,45.52,0,0,0-57.13-11.2,44.87,44.87,0,0,0-6.9,4.65A45.51,45.51,0,0,0,566.38,307.08Z"/><path class="cls-131" d="M644.55,347.5c-.42-.34-4.81-4.25-28.13-36.68-5.89-8.2-10.11-13-13.11-15.73-4.75,3.81-9,6.55-10.83,5.89a2.31,2.31,0,0,1-1.45-2.56l.05-.62c.29-3,.82-8.66,4.87-9.75,1.63-.44,3.84-.29,7.38,2.37,2.53-2.14,5.21-4.51,7.6-6.75-1.52-2.53-2.36-4.53-2.29-5.77a2.79,2.79,0,0,1,1-2.09c3.88-3.16,9.59-5.11,11.89-3,.62.57,1.81,2.21-.25,5.17a70,70,0,0,1-5.91,6.25c7.29,10.47,26,31.35,44.26,50.13a1.77,1.77,0,0,1,0,2.52,1.8,1.8,0,0,1-2.53,0c-6.5-6.68-33.63-34.8-44.2-50.21-2.13,2-4.46,4.13-6.79,6.11,3.34,3.15,7.62,8.14,13.23,16,22.91,31.87,27.31,35.86,27.45,36a1.78,1.78,0,1,1-2.22,2.79Zm-47.67-56c-1.36.36-1.89,3.34-2.12,5.42a55.4,55.4,0,0,0,5.7-4.14C598.41,291.38,597.35,291.37,596.88,291.5Zm15.32-13.16a8.59,8.59,0,0,0,1.26,2.94,47,47,0,0,0,4.9-5.31c.13-.19.23-.35.31-.49A13.3,13.3,0,0,0,612.2,278.34Z"/><path class="cls-132" d="M629.16,344.76l13.87,17a10.69,10.69,0,0,0,15,1.54l15.42-12.56a10.6,10.6,0,0,0,3.91-8.84,10.47,10.47,0,0,0-2.37-6.17l-13.87-17Z"/><rect class="cls-133" x="629.58" y="334.74" width="41.23" height="6.4" transform="translate(-67.36 486.51) rotate(-39.16)"/><rect class="cls-133" x="634.97" y="341.36" width="41.24" height="6.4" transform="translate(-70.44 490.83) rotate(-39.12)"/><path class="cls-133" d="M643,361.71l.07.09a10.63,10.63,0,0,0,5.57,3.58l28.78-23.44a10.47,10.47,0,0,0-2.37-6.17l-.07-.09Z"/><path class="cls-134" d="M561.5,289.81A8.44,8.44,0,1,0,566,278.76,8.44,8.44,0,0,0,561.5,289.81Z"/><path class="cls-134" d="M567.58,266.73a2.91,2.91,0,1,0,1.56-3.81A2.92,2.92,0,0,0,567.58,266.73Z"/><path class="cls-135" d="M1353.91,82.72c.64.23,1.27.49,1.91.68,4.56,1.35,7.85,4,9.42,8.67,1.17,3.5,2.49,7,3.83,10.68,2.06-.64,4-1.31,6-1.84a7.84,7.84,0,0,1,2.11,0,10.76,10.76,0,0,1-.09,2.35,5.18,5.18,0,0,1-1,1.75c-4.72,6.14-9.48,12.26-14.17,18.42a2.24,2.24,0,0,1-2.58,1c-8.18-1.73-16.38-3.37-24.56-5.12-.64-.14-1.13-1-1.68-1.47.52-.56.93-1.33,1.57-1.62,1.41-.64,2.94-1,5-1.71-3.34-8.63-6.47-17.16-10-25.54a17.65,17.65,0,0,0-9.82-9.5,15.72,15.72,0,0,1-1.92-1.15Z"/><path class="cls-136" d="M1267.23,136.82l9.86-13.88c-1.37-1.1-3.07-2.36-4.62-3.76-.5-.46-1.08-1.65-.87-1.93a2.85,2.85,0,0,1,2.12-1.09q12.72,1.13,25.39,2.52a2.55,2.55,0,0,1,1.72,1.34c3,7.64,5.94,15.33,8.88,23a3.72,3.72,0,0,1,.36,1.38c0,.51-.13,1.27-.45,1.43a1.89,1.89,0,0,1-1.64-.12c-1.51-1-2.91-2.23-4.46-3.45-.55.59-1,1.07-1.43,1.59-4.14,5-8.16,10.16-12.45,15.05s-8,10.32-7.25,17.52c-.23-.46-.49-.92-.7-1.4-4-9.59-8.13-19.17-12.1-28.8-1-2.51-1.72-5.17-2.56-7.76C1267.1,137.91,1267.16,137.37,1267.23,136.82Z"/><path class="cls-137" d="M1389.94,151c-3.16,5.5-8,8.83-14.2,9.09-4.46.18-9-.83-13.46-1.38a1.85,1.85,0,0,1-1.16-1c-3.84-8.48-7.64-17-11.53-25.66L1377,120.36a8.78,8.78,0,0,1,.76,1.15q5.7,11.51,11.35,23c.5,1,.85,2.13,1.28,3.19C1390.2,148.83,1390.07,149.92,1389.94,151Z"/><path class="cls-138" d="M1388.43,159.32l-14.26,19.77c-2.6,3.61-5.25,7.18-7.78,10.84a9.55,9.55,0,0,1-9.6,4.27c-3.87-.43-7.73-.94-11.88-1.44-.24,2-.34,3.8-.74,5.57a10.22,10.22,0,0,1-1.43,2.62c-.85-.65-2.06-1.11-2.51-2-2.67-5.18-5.19-10.43-7.73-15.67-1.19-2.45-3.35-5-3.15-7.39s2.84-4.34,4.44-6.48c3.4-4.55,6.79-9.11,10.29-13.59a10,10,0,0,1,2.48-1.75,16.49,16.49,0,0,1,.69,3.14,23.28,23.28,0,0,1-.38,3.51c.3.2.41.33.53.34,8.16,1,16.32,2.07,24.5,2.91A21.89,21.89,0,0,0,1388.43,159.32Z"/><path class="cls-139" d="M1325.39,159.3c-1.24,10.14-2.45,20-3.7,30.24l-2.2-.27-25.3-3.1c-5.49-.67-7.68-3.07-7.82-8.57a20.48,20.48,0,0,1,4.85-14.45c2-2.38,3.71-5.69,6.32-6.84,2.33-1,5.72.3,8.64.65C1312.5,157.71,1318.82,158.5,1325.39,159.3Z"/><path class="cls-140" d="M1289.9,104.77c5.86-7.23,11.51-14.29,17.28-21.25,2.13-2.58,7.22-3.17,10.9-1.09a19.22,19.22,0,0,1,5.36,4.65c3.5,4.41,5.36,9.68,7,15a2.06,2.06,0,0,1-.37,1.62q-8.37,10.14-16.84,20.21a3.17,3.17,0,0,1-.61.43C1305.09,117.87,1297.59,111.39,1289.9,104.77Z"/><path class="cls-141" d="M761.23,151.42C721.36,166.91,718.41,170,718.41,170s18.26,18.21,53.67,17.77,58.19-18.17,58.19-18.17S801.1,135.92,761.23,151.42Z"/><path class="cls-142" d="M731.93,173.36a2,2,0,0,1-.68-3.88c1-.36,24.68-8.75,50.59-6.61,15.46,1.28,51.87,5.23,52.23,5.27a2,2,0,1,1-.43,4c-.37,0-36.72-4-52.12-5.26-25-2.06-48.68,6.31-48.91,6.39A2,2,0,0,1,731.93,173.36Z"/><path class="cls-142" d="M747.23,178.86a2,2,0,0,1-1.23-3.57l15-11.79a2,2,0,0,1,2.47,3.14l-15,11.79A2,2,0,0,1,747.23,178.86Z"/><path class="cls-142" d="M778.16,166.26a2,2,0,0,1-1.35-.53l-10.64-9.8a2,2,0,1,1,2.71-2.94l10.64,9.8a2,2,0,0,1-1.36,3.47Z"/><path class="cls-142" d="M780.11,182.86a2,2,0,0,1-1.31-3.51l15.9-13.74a2,2,0,1,1,2.62,3l-15.91,13.74A2,2,0,0,1,780.11,182.86Z"/><path class="cls-142" d="M811.07,169.18a2,2,0,0,1-1.58-.77l-9.1-11.81a2,2,0,1,1,3.17-2.44l9.1,11.8a2,2,0,0,1-.37,2.81A2,2,0,0,1,811.07,169.18Z"/><path class="cls-142" d="M798.75,184.19a2,2,0,0,1-1.75-1,2,2,0,0,1,.77-2.72l23.54-13.25a2,2,0,1,1,2,3.48l-23.54,13.25A2.05,2.05,0,0,1,798.75,184.19Z"/><path class="cls-143" d="M828.33,180.71s-49.62-25.65-42.48-78.8,10-57.66,10-57.66,27.57,16.88,37.46,60.17S828.33,180.71,828.33,180.71Z"/><path class="cls-142" d="M830.06,187.42a2.51,2.51,0,0,1-2.36-1.66c-.16-.43-15.71-43.64-21.82-62.1-10.24-30.95-7-62.29-6.84-63.61a2.5,2.5,0,1,1,5,.54c0,.32-3.27,31.61,6.62,61.49,6.09,18.4,21.62,61.55,21.78,62a2.51,2.51,0,0,1-2.36,3.36Z"/><path class="cls-142" d="M802.8,101.64a2.54,2.54,0,0,1-1-.23,2.5,2.5,0,0,1-1.24-3.32l9.94-21.78A2.51,2.51,0,1,1,815,78.39l-9.94,21.78A2.51,2.51,0,0,1,802.8,101.64Z"/><path class="cls-142" d="M806.49,121.26a2.46,2.46,0,0,1-1.39-.42L790,110.77a2.51,2.51,0,0,1,2.78-4.17l15.08,10.07a2.5,2.5,0,0,1-1.39,4.59Z"/><path class="cls-142" d="M815.24,142.18a2.51,2.51,0,0,1-2.22-3.65l12.05-23.44a2.51,2.51,0,1,1,4.46,2.3l-12.06,23.43A2.51,2.51,0,0,1,815.24,142.18Z"/><path class="cls-142" d="M819.76,160.52a2.47,2.47,0,0,1-1-.22l-17.07-7.61a2.51,2.51,0,1,1,2-4.58l17.07,7.61a2.51,2.51,0,0,1-1,4.8Z"/><path class="cls-142" d="M825.21,173.67a2.72,2.72,0,0,1-.69-.09,2.51,2.51,0,0,1-1.73-3.1L832,137.89a2.5,2.5,0,0,1,4.82,1.36l-9.2,32.6A2.52,2.52,0,0,1,825.21,173.67Z"/><g id="man_1" data-name="man 1"><path class="cls-144" d="M929.4,1338.55l-9.35,5.61s-11.7-4.21-8.66-4.67c1.27-.2,1.6-3,1.54-6.13a80.84,80.84,0,0,0-.84-9.55s0-.94-.7-.7,7.72-5.13,7.72-5.13,4.86-1.07,7,2.36a8.18,8.18,0,0,1,.95,5.11,29.78,29.78,0,0,0,.25,7.13C928,1336.76,929.4,1338.55,929.4,1338.55Z"/><path class="cls-145" d="M951.74,1436.64l-3.27,3.21-27.25,26.62s-14.28,43.27-13.34,88.63c.18,8.21.29,14.89.37,20.31.26,18.22.11,22.25.11,22.25l-15-1.4s-12.17-61.27-10.3-88.39c1.44-20.81,11.47-71.57,11.47-71.57l20.31-3.15,4.27-.66,16.1-2.5Z"/><path class="cls-146" d="M927.3,1332.58c-1.15.53-2.46,1.17-3.91,1.92-3.43,1.77-7.81.19-10.46-1.14a80.84,80.84,0,0,0-.84-9.55s0-.94-.7-.7,7.72-5.13,7.72-5.13a13.67,13.67,0,0,1,6.8,2.3l.19.06a8.18,8.18,0,0,1,.95,5.11A29.78,29.78,0,0,0,927.3,1332.58Z"/><path class="cls-147" d="M921.22,1466.47s-14.28,43.27-13.34,88.63c.18,8.21.29,14.89.37,20.31-6.6-8.06-3.67-11.42-3.67-16.82,0-5.84-.69-21.67-5.51-32.34s8.26-34.4,12-49.54-8.94-33-8.94-33l12.7-10.53,1.4-1.17c.23,0,1.27.19,2.87.51,5.78,1.13,18.71,3.84,24.66,4.65a7.82,7.82,0,0,1,4.67,2.71Z"/><path class="cls-148" d="M986.84,1556.94l-9.65,15.68a132.18,132.18,0,0,1-26.11-11c-9.84-5.59-19.12-13.27-21-22.8-5.58-28.69-8.71-72.22-8.71-72.22L894.94,1438l32.88-.42,24,0s.94-3.51-1.87,14.72c-2.46,16-.67,30.25,1.38,49,.57,5.31,1.17,11,1.7,17.11a39.33,39.33,0,0,0,6.9,19.43C969.9,1552.14,986.84,1556.94,986.84,1556.94Z"/><path class="cls-149" d="M939,1308c.29,16.85-15.26,24.91-20.41,24.91-5.38,0-15.6-11.47-15.6-24.91,0-.57,0-1.15,0-1.71.41-8.08,3.76-15.09,8.61-19.07a14.65,14.65,0,0,1,9.35-3.53C930.93,1283.71,938.76,1294.59,939,1308Z"/><path class="cls-150" d="M930.73,1301.69c0,.93-2.07,8.73-2.07,8.73l-2.29.45-1.84-5.94s-.38.53-11.24,1.81a26.37,26.37,0,0,1-10.27-.43c.41-8.08,3.76-15.09,8.61-19.07,6.79,2.63,17.66,7,19.1,8.26C932.79,1297.34,930.73,1300.79,930.73,1301.69Z"/><path class="cls-151" d="M938,1313.06c0-3.31.76-9.09-3.33-9.09-2.46,0-4.46,2.68-4.46,6,0,.23,0,.46,0,.7l-2.19,0-1.11-11.1s-19.83,9.22-26,.58a7.15,7.15,0,0,1-.45-.71c-5.6-9.82,4.68-13.91,11.34-15,20.35-3.21,21.81.36,21.81.36a14.78,14.78,0,0,1,4.65,2.6,8,8,0,0,1,3,5.59C942.21,1308.15,938,1316.38,938,1313.06Z"/><path class="cls-152" d="M953.85,1395.77c-.3,12.18-.92,24-1.39,32-.34,6-.61,9.76-.61,9.76l-57.65-.13s-.24-3.31-.56-8.63c-.58-9.18-1.45-24.35-1.9-38.82-.29-9.07-.42-17.85-.22-24.7.7-24.08,20.57-26.41,20.57-26.41a14.25,14.25,0,0,0,7,2.33c4.67.47,9.13-3.75,9.13-3.75s.94-.23,10,1.65a18.41,18.41,0,0,1,14.22,14.49C954.18,1362.45,954.29,1379.42,953.85,1395.77Z"/><path class="cls-153" d="M938,1313.06c0-3.31.76-9.09-3.33-9.09-2.46,0-4.46,2.68-4.46,6,0,.23,0,.46,0,.7l-2.19,0-1.11-11.1s-19.83,9.22-26,.58c5.66,3.9,18.55.6,19.5-2.57,1-3.44,10,.17,16.17-1.55,3.71-1,2.92-5.31,1.68-8.6a8,8,0,0,1,3,5.59C942.21,1308.15,938,1316.38,938,1313.06Z"/><path class="cls-154" d="M929.21,1349.33s0,12.07,6.34,19.91,8.15,10.26,3.92,16-25.34,20.22-25.34,20.22,16.29-1.81,18.4-2.41,12.38-5.13,13.58-6,8.45-18.4,8.45-19.91-.3-9-2.11-12.07-3.92-7.24-5.13-8.15S929.21,1349.33,929.21,1349.33Z"/><path class="cls-155" d="M908,1322.44,889.71,1349l-23.5-10-18.27-20.88a19.07,19.07,0,0,0,10.88.87c2.92-.63,4.92-2.15,6.73-3.19s3.62-1.66,5.89.15c2.95,2.35,3.3,4.51,5.38,5.38a9,9,0,0,0,4.61.27c4.46-.56,6.79-2.54,9-3.31a4.7,4.7,0,0,1,4,.27,18.17,18.17,0,0,1,3.87,2.68c1.81,1.54,3.06,2.88,4.13,2.62a.54.54,0,0,0,.25-.09A21.55,21.55,0,0,1,908,1322.44Z"/><path class="cls-156" d="M865.55,1315.77l7.23,21.48-3.31.61L855,1319.38a18.28,18.28,0,0,0,3.82-.42C861.74,1318.33,863.74,1316.81,865.55,1315.77Z"/><path class="cls-157" d="M881.43,1321.57c4.46-.56,6.79-2.54,9-3.31l-4.38,21.41h-7.24l-2-18.37A9,9,0,0,0,881.43,1321.57Z"/><path class="cls-158" d="M902.49,1323.83c-3.58,7.55-8.58,18.27-8.58,18.85,0,.91-2.72-1.81-2.72-1.81l7.17-19.66C900.17,1322.75,901.42,1324.09,902.49,1323.83Z"/><path class="cls-159" d="M918.86,1400.24c-2,10.79-7,18.76-15.61,18.76H861.14c-15.94,0-24.84-8-28.45-19-5.37-16.31,1.07-39.12,13.69-51.55a51.79,51.79,0,0,1,17.74-11.85,36.11,36.11,0,0,1,32.14,2.84,48.1,48.1,0,0,1,9.51,7.31c.58.55,1.14,1.13,1.68,1.7C917.55,1359.19,922,1383.22,918.86,1400.24Z"/><path class="cls-56" d="M882.52,1361.17l.58.13a3.91,3.91,0,0,1,3.09,2.22c.47,1,1,2,1.51,3,.58-.26,1.14-.53,1.71-.76a2.59,2.59,0,0,1,.63-.07,3.25,3.25,0,0,1,.05.69,1.45,1.45,0,0,1-.23.56c-1.18,2-2.36,3.94-3.53,5.93a.67.67,0,0,1-.72.39l-7.42-.64c-.2,0-.37-.25-.55-.37a1.75,1.75,0,0,1,.41-.54,15.53,15.53,0,0,1,1.4-.68c-1.3-2.43-2.52-4.83-3.85-7.17a5.19,5.19,0,0,0-3.23-2.45,5.41,5.41,0,0,1-.61-.27Z"/><path class="cls-56" d="M858.9,1380.19l2.41-4.44c-.45-.28-1-.59-1.5-1-.16-.11-.37-.44-.32-.53a.87.87,0,0,1,.58-.4q3.79-.12,7.57-.16a.78.78,0,0,1,.56.33c1.16,2.15,2.29,4.31,3.44,6.47a1.25,1.25,0,0,1,.15.39c0,.15,0,.38-.08.44a.56.56,0,0,1-.49,0c-.48-.25-.94-.55-1.44-.86-.14.2-.26.36-.36.52-1,1.63-2,3.28-3.13,4.88s-2,3.32-1.52,5.42c-.09-.13-.18-.25-.26-.38-1.53-2.69-3.07-5.37-4.59-8.07-.39-.7-.69-1.46-1-2.19Z"/><path class="cls-56" d="M895.56,1380a4.94,4.94,0,0,1-3.86,3.18,24.47,24.47,0,0,1-4,.08.54.54,0,0,1-.37-.25c-1.43-2.36-2.86-4.73-4.31-7.15l7.64-4.43a2.49,2.49,0,0,1,.27.31q2.08,3.2,4.16,6.39c.19.28.33.6.49.89Z"/><path class="cls-56" d="M895.41,1382.51l-3.5,6.34c-.64,1.15-1.29,2.3-1.91,3.47a2.84,2.84,0,0,1-2.67,1.6c-1.16,0-2.31,0-3.56,0,0,.59,0,1.13,0,1.67a3.2,3.2,0,0,1-.33.82c-.28-.16-.65-.25-.81-.49-1-1.43-1.9-2.88-2.84-4.34-.43-.68-1.16-1.36-1.19-2.07s.69-1.37,1.08-2.06c.84-1.46,1.68-2.93,2.55-4.37a3,3,0,0,1,.67-.61,5,5,0,0,1,.31.9,6.16,6.16,0,0,1,0,1.05c.1,0,.14.09.17.09,2.44,0,4.88,0,7.33,0A6.49,6.49,0,0,0,895.41,1382.51Z"/><path class="cls-56" d="M876.84,1384.75c0,3,0,6,0,9h-.66l-7.57,0a2.24,2.24,0,0,1-2.61-2.24,6.08,6.08,0,0,1,.92-4.43c.52-.78.89-1.81,1.62-2.24s1.7-.12,2.57-.12Z"/><path class="cls-56" d="M864.44,1369.94c1.47-2.34,2.88-4.62,4.33-6.88a2.76,2.76,0,0,1,3.18-.71,5.76,5.76,0,0,1,1.74,1.18,12.92,12.92,0,0,1,2.59,4.18.61.61,0,0,1,0,.49q-2.12,3.29-4.25,6.55a.8.8,0,0,1-.16.15Z"/><path class="cls-160" d="M918.86,1400.24c-2,10.79-7,18.76-15.61,18.76H861.14c-15.94,0-24.84-8-28.45-19a44.44,44.44,0,0,0,9.92,8.76c10.56,6.65,21.73,2.12,29.26-3.31s30.78-3.93,36.52-14.48c4.55-8.35-.38-33.91-2.62-44.22.58.55,1.14,1.13,1.68,1.7C917.55,1359.19,922,1383.22,918.86,1400.24Z"/><path class="cls-161" d="M918.86,1400.24c-2,10.79-7,18.76-15.61,18.76H888.66c2.66-2.7,8.27-6,8.27-6s-2.26-.16-2-3.17,11.31-1.81,11.31-1.81Z"/><path class="cls-162" d="M953.85,1395.77c-.3,12.18-.92,24-1.39,32-.34,6-.61,9.76-.61,9.76l-57.65-.13s-.24-3.31-.56-8.63c.79.74,1.7,1.61,2.68,2.68,3.93,4.23,3.33-2.41,8.45-2.72s11.77.91,17.8-5.12,10.26-3.93,17.2-4.84,8.45-3.62,8.45-8.14-13-.91-13-.91l.31-7.24s5.74-1.5,7.55-2.72,9.34-3.62,10.56-3.91Z"/><path class="cls-163" d="M971,1388.5c-1.14,5.09-22.56,15.7-39.35,23.18-4.32,1.92-8.32,3.64-11.6,5-1.61.68-3,1.26-4.26,1.73-2.1.83-3.52,1.35-4,1.46-3.42.91-20.17,9.8-23.34,4-3.33-6,11.74-10.3,12.64-10.57-.5,0-5.19.09-5.16-2.83,0-3.1,10-1.43,10-1.43l3.69-2.21,3.92-2.33,37.71-22.62s-2.39-2.59-6.17-7.22l-.75-.91c-1-1.17-2-2.48-3.11-3.91-1.65-2.08-3.44-4.43-5.34-7-8.8-11.84-8.41-17.67-4.24-20.8,10.07-7.57,20.77,6.64,20.77,6.64s1.86,2.9,4.43,7.21c1.54,2.57,3.32,5.67,5.11,8.89,1,1.79,1.94,3.62,2.86,5.43.11.24.25.47.36.69C968.9,1378.22,971.73,1385.25,971,1388.5Z"/><path class="cls-164" d="M971,1388.5c-1.14,5.09-22.56,15.7-39.35,23.18l-5.66,2.48c-2.16.94-4.15,1.79-5.94,2.53l-6.44-12.14,37.71-22.62s-2.39-2.59-6.17-7.22l-.75-.91c-1-1.17-2-2.48-3.11-3.91-1.65-2.08-3.44-4.43-5.34-7-8.8-11.84-8.41-17.67-4.24-20.8,10.07-7.57,20.77,6.64,20.77,6.64s1.86,2.9,4.43,7.21c1.54,2.57,3.32,5.67,5.11,8.89.2.34.38.71.56,1.07.8,1.44,1.56,2.91,2.3,4.36.11.24.25.47.36.69C968.9,1378.22,971.73,1385.25,971,1388.5Z"/><path class="cls-165" d="M971,1388.5c-1.14,5.09-22.56,15.7-39.35,23.18l-5.66,2.48c1.57-2.93,6.39-7.71,13.16-9.61,7.55-2.12,16.3-6.34,16.6-10.56s3.32-6.34,7.54-14.48c1.72-3.32.88-8.55-.71-13.58.8,1.44,1.56,2.91,2.3,4.36.11.24.25.47.36.69C968.9,1378.22,971.73,1385.25,971,1388.5Z"/><path class="cls-166" d="M915.81,1418.42c-2.1.83-3.52,1.35-4,1.46-3.42.91-20.17,9.8-23.34,4-3.33-6,11.74-10.3,12.64-10.57-.5,0-5.19.09-5.16-2.83,0-3.1,10-1.43,10-1.43l3.69-2.21Z"/><path class="cls-167" d="M840.8,1390.67c-.41-2.16-4.28-3.11-5.1-3.28.35,0,1.11,0,.87-1.4-.3-1.81-5.58-2.72-5.58-2.72v7.55a17.11,17.11,0,0,0,1.81,3.77c.45.6,3.17,2.72,3.77,2.72s3.17-1.81,3.17-1.81A7.75,7.75,0,0,0,840.8,1390.67Z"/><path class="cls-168" d="M921.37,1621.22l-39.21,1-19.63.51s6.94-13.89,16.59-15.08,15.38-.31,15.38-.31l-8.74-28.06,26-2.72,2.73,12.65Z"/><path class="cls-169" d="M839.52,1391.14c-1.1-1.46-6.81-3.66-6.81-3.66s2.49.5,2.66-1-4.16-2.16-4.16-2.16l-.17-.5s-5.93,10.91,1.67,13.3C841.88,1400,841.1,1393.23,839.52,1391.14Z"/><path class="cls-170" d="M986.84,1556.94l-9.65,15.68a132.18,132.18,0,0,1-26.11-11,3.92,3.92,0,0,1,1.67.13c4.83,1.52,6,1.21,8.15-3s5.43-3.33,4.52-8.45c-.56-3.16-2.82-7.23-5.46-12.57C969.9,1552.14,986.84,1556.94,986.84,1556.94Z"/><path class="cls-171" d="M1018.11,1573.07l-26,31.14-11.73,14s-5.85-14.37-.36-22.43,9.92-11.75,9.92-11.75l-26.85-12,15.1-21.27,11.39,6.34,3.87,2.15Z"/><path class="cls-172" d="M992.11,1604.21c3.28-9.28.6-6.52,2-12.87,1.52-6.95,10.26-8.76,11.17-16s-15.7-18.11-15.7-18.11l0,0,3.87,2.15,24.66,13.74Z"/><path class="cls-173" d="M921.37,1621.22l-39.21,1c1.75-1.92,2.3-4.09,5.41-6.43,6-4.52,13.89-1.21,20.82-4.23,5.81-2.52,6.12-17.53,6.05-22.35Z"/></g></g></g></g></g></svg>