<svg xmlns="http://www.w3.org/2000/svg" xmlns:xlink="http://www.w3.org/1999/xlink" viewBox="0 0 760.66 717.85"><defs><style>.cls-1{mask:url(#mask);filter:url(#luminosity-noclip-2);}.cls-12,.cls-16,.cls-2,.cls-20,.cls-24,.cls-28,.cls-32,.cls-6,.cls-8{mix-blend-mode:multiply;}.cls-2{fill:url(#linear-gradient);}.cls-3{mask:url(#mask-2);}.cls-4{fill:url(#linear-gradient-2);}.cls-5{mask:url(#mask-3);filter:url(#luminosity-noclip-18);}.cls-6{fill:url(#linear-gradient-3);}.cls-7{mask:url(#mask-4);filter:url(#luminosity-noclip-5);}.cls-8{fill:url(#linear-gradient-4);}.cls-9{mask:url(#mask-5);}.cls-10{fill:url(#linear-gradient-5);}.cls-11{mask:url(#mask-6);filter:url(#luminosity-noclip-7);}.cls-12{fill:url(#linear-gradient-6);}.cls-13{mask:url(#mask-7);}.cls-14{fill:url(#linear-gradient-7);}.cls-15{mask:url(#mask-8);filter:url(#luminosity-noclip-9);}.cls-16{fill:url(#linear-gradient-8);}.cls-17{mask:url(#mask-9);}.cls-18{fill:url(#linear-gradient-9);}.cls-19{mask:url(#mask-10);filter:url(#luminosity-noclip-11);}.cls-20{fill:url(#linear-gradient-10);}.cls-21{mask:url(#mask-11);}.cls-22{fill:url(#linear-gradient-11);}.cls-23{mask:url(#mask-12);filter:url(#luminosity-noclip-13);}.cls-24{fill:url(#linear-gradient-12);}.cls-25{mask:url(#mask-13);}.cls-26{fill:url(#linear-gradient-13);}.cls-27{mask:url(#mask-14);filter:url(#luminosity-noclip-15);}.cls-28{fill:url(#linear-gradient-14);}.cls-29{mask:url(#mask-15);}.cls-30{fill:url(#linear-gradient-15);}.cls-31{mask:url(#mask-16);filter:url(#luminosity-noclip-17);}.cls-32{fill:url(#linear-gradient-16);}.cls-33{mask:url(#mask-17);}.cls-34{fill:url(#linear-gradient-17);}.cls-35{mask:url(#mask-18);}.cls-36{fill:url(#linear-gradient-18);}.cls-37{fill:url(#linear-gradient-19);}.cls-38,.cls-39,.cls-42,.cls-43,.cls-44,.cls-45,.cls-46{fill-rule:evenodd;}.cls-38{fill:url(#linear-gradient-20);}.cls-39{fill:url(#linear-gradient-21);}.cls-40{fill:url(#linear-gradient-22);}.cls-41{fill:url(#linear-gradient-23);}.cls-42{fill:url(#linear-gradient-24);}.cls-43{fill:url(#linear-gradient-25);}.cls-44{fill:url(#linear-gradient-26);}.cls-45{fill:url(#linear-gradient-27);}.cls-46{fill:url(#linear-gradient-28);}.cls-47{fill:url(#linear-gradient-29);}.cls-48{mask:url(#mask-19);}.cls-49{fill:#ecf955;}.cls-50{mask:url(#mask-20);}.cls-51{fill:#002223;}.cls-52{mask:url(#mask-21);}.cls-53{fill:#003136;}.cls-54{fill:url(#linear-gradient-30);}.cls-55{mask:url(#mask-22);}.cls-56{mask:url(#mask-23);}.cls-57{mask:url(#mask-24);}.cls-58{fill:url(#linear-gradient-31);}.cls-59{mask:url(#mask-25);}.cls-60{mask:url(#mask-26);}.cls-61{mask:url(#mask-27);}.cls-62{filter:url(#luminosity-noclip-16);}.cls-63{filter:url(#luminosity-noclip-14);}.cls-64{filter:url(#luminosity-noclip-12);}.cls-65{filter:url(#luminosity-noclip-10);}.cls-66{filter:url(#luminosity-noclip-8);}.cls-67{filter:url(#luminosity-noclip-6);}.cls-68{filter:url(#luminosity-noclip-4);}.cls-69{filter:url(#luminosity-noclip-3);}.cls-70{filter:url(#luminosity-noclip);}</style><filter id="luminosity-noclip" x="559.1" y="-8612.28" width="202.74" height="32766" filterUnits="userSpaceOnUse" color-interpolation-filters="sRGB"><feFlood flood-color="#fff" result="bg"/><feBlend in="SourceGraphic" in2="bg"/></filter><mask id="mask" x="559.1" y="-8612.28" width="202.74" height="32766" maskUnits="userSpaceOnUse"><g class="cls-70"/></mask><linearGradient id="linear-gradient" x1="1005.99" y1="616.29" x2="576.16" y2="181.28" gradientTransform="matrix(1, 0, 0, -1, 0, 842.55)" gradientUnits="userSpaceOnUse"><stop offset="0" stop-color="#fff"/><stop offset="1"/></linearGradient><filter id="luminosity-noclip-2" x="559.1" y="446.93" width="202.74" height="258.04" filterUnits="userSpaceOnUse" color-interpolation-filters="sRGB"><feFlood flood-color="#fff" result="bg"/><feBlend in="SourceGraphic" in2="bg"/></filter><mask id="mask-2" x="559.1" y="446.93" width="202.74" height="258.04" maskUnits="userSpaceOnUse"><g class="cls-1"><rect class="cls-2" x="559.1" y="446.93" width="202.74" height="258.04"/></g></mask><linearGradient id="linear-gradient-2" x1="1005.99" y1="616.29" x2="576.16" y2="181.28" gradientTransform="matrix(1, 0, 0, -1, 0, 842.55)" gradientUnits="userSpaceOnUse"><stop offset="0" stop-color="#fff"/><stop offset="1" stop-color="#fff"/></linearGradient><filter id="luminosity-noclip-3" x="228.79" y="-8612.28" width="324.45" height="32766" filterUnits="userSpaceOnUse" color-interpolation-filters="sRGB"><feFlood flood-color="#fff" result="bg"/><feBlend in="SourceGraphic" in2="bg"/></filter><mask id="mask-3" x="228.79" y="-8612.28" width="324.45" height="32766" maskUnits="userSpaceOnUse"><g class="cls-69"/></mask><linearGradient id="linear-gradient-3" x1="43.79" y1="1432.95" x2="-386.04" y2="997.94" gradientTransform="matrix(0, -1, -1, 0, 1474.28, -224.19)" xlink:href="#linear-gradient"/><filter id="luminosity-noclip-4" x="360.64" y="-8612.28" width="289.9" height="32766" filterUnits="userSpaceOnUse" color-interpolation-filters="sRGB"><feFlood flood-color="#fff" result="bg"/><feBlend in="SourceGraphic" in2="bg"/></filter><mask id="mask-4" x="360.64" y="-8612.28" width="289.9" height="32766" maskUnits="userSpaceOnUse"><g class="cls-68"/></mask><linearGradient id="linear-gradient-4" x1="28.49" y1="1362.05" x2="-562.96" y2="946.7" gradientTransform="matrix(0, -1, -1, 0, 1536.9, -268.08)" xlink:href="#linear-gradient"/><filter id="luminosity-noclip-5" x="360.64" y="12.8" width="289.9" height="323.21" filterUnits="userSpaceOnUse" color-interpolation-filters="sRGB"><feFlood flood-color="#fff" result="bg"/><feBlend in="SourceGraphic" in2="bg"/></filter><mask id="mask-5" x="360.64" y="12.8" width="289.9" height="323.21" maskUnits="userSpaceOnUse"><g class="cls-7"><rect class="cls-8" x="415.21" y="39.87" width="180.77" height="269.07" transform="translate(-20.28 271.85) rotate(-29.53)"/></g></mask><linearGradient id="linear-gradient-5" x1="28.49" y1="1362.05" x2="-562.96" y2="946.7" gradientTransform="matrix(0, -1, -1, 0, 1536.9, -268.08)" xlink:href="#linear-gradient-2"/><filter id="luminosity-noclip-6" x="115.03" y="-8612.28" width="441.78" height="32766" filterUnits="userSpaceOnUse" color-interpolation-filters="sRGB"><feFlood flood-color="#fff" result="bg"/><feBlend in="SourceGraphic" in2="bg"/></filter><mask id="mask-6" x="115.03" y="-8612.28" width="441.78" height="32766" maskUnits="userSpaceOnUse"><g class="cls-67"/></mask><linearGradient id="linear-gradient-6" x1="-723.8" y1="217.21" x2="-324.05" y2="1407.96" gradientTransform="matrix(0, -1, -1, 0, 1534.89, -179.17)" xlink:href="#linear-gradient"/><filter id="luminosity-noclip-7" x="115.03" y="25.02" width="441.78" height="380.05" filterUnits="userSpaceOnUse" color-interpolation-filters="sRGB"><feFlood flood-color="#fff" result="bg"/><feBlend in="SourceGraphic" in2="bg"/></filter><mask id="mask-7" x="115.03" y="25.02" width="441.78" height="380.05" maskUnits="userSpaceOnUse"><g class="cls-11"><rect class="cls-12" x="144.27" y="105.21" width="383.3" height="219.67" transform="translate(-62.35 193.5) rotate(-29.53)"/></g></mask><linearGradient id="linear-gradient-7" x1="-723.8" y1="217.21" x2="-324.05" y2="1407.96" gradientTransform="matrix(0, -1, -1, 0, 1534.89, -179.17)" xlink:href="#linear-gradient-2"/><filter id="luminosity-noclip-8" x="-67" y="-8612.28" width="324.02" height="32766" filterUnits="userSpaceOnUse" color-interpolation-filters="sRGB"><feFlood flood-color="#fff" result="bg"/><feBlend in="SourceGraphic" in2="bg"/></filter><mask id="mask-8" x="-67" y="-8612.28" width="324.02" height="32766" maskUnits="userSpaceOnUse"><g class="cls-66"/></mask><linearGradient id="linear-gradient-8" x1="24.74" y1="1976.18" x2="-405.09" y2="1541.17" gradientTransform="matrix(-1, 0, 0, 1, -225.77, -1066.19)" xlink:href="#linear-gradient"/><filter id="luminosity-noclip-9" x="-67" y="409.04" width="324.02" height="302.53" filterUnits="userSpaceOnUse" color-interpolation-filters="sRGB"><feFlood flood-color="#fff" result="bg"/><feBlend in="SourceGraphic" in2="bg"/></filter><mask id="mask-9" x="-67" y="409.04" width="324.02" height="302.53" maskUnits="userSpaceOnUse"><g class="cls-15"><rect class="cls-16" x="-6.36" y="431.28" width="202.74" height="258.04" transform="translate(-440.93 371.28) rotate(-60.95)"/></g></mask><linearGradient id="linear-gradient-9" x1="24.74" y1="1976.18" x2="-405.09" y2="1541.17" gradientTransform="matrix(-1, 0, 0, 1, -225.77, -1066.19)" xlink:href="#linear-gradient-2"/><filter id="luminosity-noclip-10" x="-26.4" y="-8612.28" width="288.68" height="32766" filterUnits="userSpaceOnUse" color-interpolation-filters="sRGB"><feFlood flood-color="#fff" result="bg"/><feBlend in="SourceGraphic" in2="bg"/></filter><mask id="mask-10" x="-26.4" y="-8612.28" width="288.68" height="32766" maskUnits="userSpaceOnUse"><g class="cls-65"/></mask><linearGradient id="linear-gradient-10" x1="9.44" y1="1905.28" x2="-582.01" y2="1489.93" gradientTransform="matrix(-1, 0, 0, 1, -343.59, -1162.51)" xlink:href="#linear-gradient"/><filter id="luminosity-noclip-11" x="-26.4" y="250.53" width="288.68" height="323" filterUnits="userSpaceOnUse" color-interpolation-filters="sRGB"><feFlood flood-color="#fff" result="bg"/><feBlend in="SourceGraphic" in2="bg"/></filter><mask id="mask-11" x="-26.4" y="250.53" width="288.68" height="323" maskUnits="userSpaceOnUse"><g class="cls-19"><rect class="cls-20" x="-16.59" y="321.64" width="269.07" height="180.77" transform="translate(-299.52 315.05) rotate(-60.95)"/></g></mask><linearGradient id="linear-gradient-11" x1="9.44" y1="1905.28" x2="-582.01" y2="1489.93" gradientTransform="matrix(-1, 0, 0, 1, -343.59, -1162.51)" xlink:href="#linear-gradient-2"/><filter id="luminosity-noclip-12" x="20.2" y="-8612.28" width="441.75" height="32766" filterUnits="userSpaceOnUse" color-interpolation-filters="sRGB"><feFlood flood-color="#fff" result="bg"/><feBlend in="SourceGraphic" in2="bg"/></filter><mask id="mask-12" x="20.2" y="-8612.28" width="441.75" height="32766" maskUnits="userSpaceOnUse"><g class="cls-64"/></mask><linearGradient id="linear-gradient-12" x1="-742.85" y1="760.44" x2="-343.1" y2="1951.19" gradientTransform="matrix(-1, 0, 0, 1, -172.19, -1206.56)" xlink:href="#linear-gradient"/><filter id="luminosity-noclip-13" x="20.2" y="346.56" width="441.75" height="378.16" filterUnits="userSpaceOnUse" color-interpolation-filters="sRGB"><feFlood flood-color="#fff" result="bg"/><feBlend in="SourceGraphic" in2="bg"/></filter><mask id="mask-13" x="20.2" y="346.56" width="441.75" height="378.16" maskUnits="userSpaceOnUse"><g class="cls-23"><rect class="cls-24" x="131.24" y="343.99" width="219.67" height="383.3" transform="translate(-344.24 486.28) rotate(-60.95)"/></g></mask><linearGradient id="linear-gradient-13" x1="-742.85" y1="760.44" x2="-343.1" y2="1951.19" gradientTransform="matrix(-1, 0, 0, 1, -172.19, -1206.56)" xlink:href="#linear-gradient-2"/><filter id="luminosity-noclip-14" x="385.18" y="-8612.28" width="269.07" height="32766" filterUnits="userSpaceOnUse" color-interpolation-filters="sRGB"><feFlood flood-color="#fff" result="bg"/><feBlend in="SourceGraphic" in2="bg"/></filter><mask id="mask-14" x="385.18" y="-8612.28" width="269.07" height="32766" maskUnits="userSpaceOnUse"><g class="cls-63"/></mask><linearGradient id="linear-gradient-14" x1="990.69" y1="545.39" x2="399.24" y2="130.04" xlink:href="#linear-gradient"/><filter id="luminosity-noclip-15" x="385.18" y="537.52" width="269.07" height="180.77" filterUnits="userSpaceOnUse" color-interpolation-filters="sRGB"><feFlood flood-color="#fff" result="bg"/><feBlend in="SourceGraphic" in2="bg"/></filter><mask id="mask-15" x="385.18" y="537.52" width="269.07" height="180.77" maskUnits="userSpaceOnUse"><g class="cls-27"><rect class="cls-28" x="385.18" y="537.52" width="269.07" height="180.77"/></g></mask><linearGradient id="linear-gradient-15" x1="990.69" y1="545.39" x2="399.24" y2="130.04" xlink:href="#linear-gradient-2"/><filter id="luminosity-noclip-16" x="458.15" y="-8612.28" width="219.67" height="32766" filterUnits="userSpaceOnUse" color-interpolation-filters="sRGB"><feFlood flood-color="#fff" result="bg"/><feBlend in="SourceGraphic" in2="bg"/></filter><mask id="mask-16" x="458.15" y="-8612.28" width="219.67" height="32766" maskUnits="userSpaceOnUse"><g class="cls-62"/></mask><linearGradient id="linear-gradient-16" x1="238.39" y1="-599.45" x2="638.14" y2="591.3" xlink:href="#linear-gradient"/><filter id="luminosity-noclip-17" x="458.15" y="268.59" width="219.67" height="383.3" filterUnits="userSpaceOnUse" color-interpolation-filters="sRGB"><feFlood flood-color="#fff" result="bg"/><feBlend in="SourceGraphic" in2="bg"/></filter><mask id="mask-17" x="458.15" y="268.59" width="219.67" height="383.3" maskUnits="userSpaceOnUse"><g class="cls-31"><rect class="cls-32" x="458.15" y="268.59" width="219.67" height="383.3"/></g></mask><linearGradient id="linear-gradient-17" x1="238.39" y1="-599.45" x2="638.14" y2="591.3" xlink:href="#linear-gradient-2"/><filter id="luminosity-noclip-18" x="228.79" y="-74.25" width="324.45" height="303.58" filterUnits="userSpaceOnUse" color-interpolation-filters="sRGB"><feFlood flood-color="#fff" result="bg"/><feBlend in="SourceGraphic" in2="bg"/></filter><mask id="mask-18" x="228.79" y="-74.25" width="324.45" height="303.58" maskUnits="userSpaceOnUse"><g class="cls-5"><rect class="cls-6" x="262" y="-23.83" width="258.04" height="202.74" transform="translate(12.57 202.79) rotate(-29.53)"/></g></mask><linearGradient id="linear-gradient-18" x1="43.79" y1="1432.95" x2="-386.04" y2="997.94" gradientTransform="matrix(0, -1, -1, 0, 1474.28, -224.19)" xlink:href="#linear-gradient-2"/><linearGradient id="linear-gradient-19" x1="-1617.79" y1="1921.18" x2="-1617.3" y2="1921.18" gradientTransform="matrix(0, 962.64, 962.64, 0, -1849030.22, 1557528.91)" gradientUnits="userSpaceOnUse"><stop offset="0" stop-color="#54b0fc"/><stop offset="1" stop-color="#265ddd"/></linearGradient><linearGradient id="linear-gradient-20" x1="-1617.83" y1="1921.2" x2="-1617.34" y2="1921.2" gradientTransform="matrix(0, 861.71, 1102.26, 0, -2117283.34, 1394360.14)" gradientUnits="userSpaceOnUse"><stop offset="0" stop-color="#358ef4"/><stop offset="1" stop-color="#173d9f"/></linearGradient><linearGradient id="linear-gradient-21" x1="-1617.53" y1="1921.19" x2="-1617.04" y2="1921.19" gradientTransform="matrix(0, 639.12, 673.72, 0, -1293958.5, 1033970.06)" gradientUnits="userSpaceOnUse"><stop offset="0" stop-color="#6ec1fd"/><stop offset="1" stop-color="#3375e6"/></linearGradient><linearGradient id="linear-gradient-22" x1="-1616.6" y1="1920.78" x2="-1616.1" y2="1920.78" gradientTransform="matrix(0, 276.77, 276.77, 0, -531249.32, 447620.2)" gradientUnits="userSpaceOnUse"><stop offset="0" stop-color="#7cc7fd"/><stop offset="1" stop-color="#4f98f1"/></linearGradient><linearGradient id="linear-gradient-23" x1="-1617.05" y1="1921.08" x2="-1616.55" y2="1921.08" gradientTransform="matrix(-241.89, 247.9, 247.9, 241.89, -866846.57, -63557.7)" gradientUnits="userSpaceOnUse"><stop offset="0" stop-color="#7cc7fd"/><stop offset="1" stop-color="#448aec"/></linearGradient><linearGradient id="linear-gradient-24" x1="-1617.88" y1="1921.27" x2="-1617.39" y2="1921.27" gradientTransform="matrix(0, 608.91, 916.26, 0, -1760001.35, 985545.23)" gradientUnits="userSpaceOnUse"><stop offset="0" stop-color="#3260c5"/><stop offset="1" stop-color="#243883"/></linearGradient><linearGradient id="linear-gradient-25" x1="-1618.41" y1="1920.65" x2="-1617.92" y2="1920.65" gradientTransform="matrix(0, -758.01, -758.01, 0, 1456251.1, -1226171.64)" gradientUnits="userSpaceOnUse"><stop offset="0" stop-color="#14956b"/><stop offset="1" stop-color="#80dc6f"/></linearGradient><linearGradient id="linear-gradient-26" x1="-1617.48" y1="1921.28" x2="-1616.99" y2="1921.28" gradientTransform="matrix(0, 617.54, 617.54, 0, -1186071.82, 999015.66)" gradientUnits="userSpaceOnUse"><stop offset="0" stop-color="#9eec8a"/><stop offset="1" stop-color="#37ac6c"/></linearGradient><linearGradient id="linear-gradient-27" x1="-1617.8" y1="1921.22" x2="-1617.31" y2="1921.22" gradientTransform="matrix(0, 934.92, 934.92, 0, -1795814.03, 1512714.77)" gradientUnits="userSpaceOnUse"><stop offset="0" stop-color="#66c66d"/><stop offset="1" stop-color="#0b8371"/></linearGradient><linearGradient id="linear-gradient-28" x1="-1617.87" y1="1921.22" x2="-1617.38" y2="1921.22" gradientTransform="matrix(-4.67, 677.67, 917.66, 6.32, -1770190.16, 1084619.31)" gradientUnits="userSpaceOnUse"><stop offset="0" stop-color="#2e9f6a"/><stop offset="1" stop-color="#05655b"/></linearGradient><linearGradient id="linear-gradient-29" x1="385.37" y1="-94.71" x2="769.95" y2="603.89" gradientTransform="matrix(1, 0, 0, -1, 0, 842.55)" gradientUnits="userSpaceOnUse"><stop offset="0" stop-color="#004e59"/><stop offset="0.47" stop-color="#1abc9c"/><stop offset="1" stop-color="#ecf955"/></linearGradient><mask id="mask-19" x="559.1" y="446.93" width="202.74" height="258.04" maskUnits="userSpaceOnUse"><g id="id6"><g class="cls-3"><rect class="cls-4" x="559.1" y="446.93" width="202.74" height="258.04"/></g></g></mask><mask id="mask-20" x="385.18" y="537.52" width="269.07" height="180.77" maskUnits="userSpaceOnUse"><g id="id8"><g class="cls-29"><rect class="cls-30" x="385.18" y="537.52" width="269.07" height="180.77"/></g></g></mask><mask id="mask-21" x="458.15" y="268.59" width="219.67" height="383.3" maskUnits="userSpaceOnUse"><g id="id10"><g class="cls-33"><rect class="cls-34" x="458.15" y="268.59" width="219.67" height="383.3"/></g></g></mask><linearGradient id="linear-gradient-30" x1="-576.83" y1="721.95" x2="-192.25" y2="1420.55" gradientTransform="matrix(-0.49, -0.87, -0.87, 0.49, 1184.85, -718.9)" xlink:href="#linear-gradient-29"/><mask id="mask-22" x="228.79" y="-74.25" width="324.45" height="303.58" maskUnits="userSpaceOnUse"><g id="id6-2" data-name="id6"><g class="cls-35"><rect class="cls-36" x="262" y="-23.83" width="258.04" height="202.74" transform="translate(12.57 202.79) rotate(-29.53)"/></g></g></mask><mask id="mask-23" x="360.64" y="12.8" width="289.9" height="323.21" maskUnits="userSpaceOnUse"><g id="id8-2" data-name="id8"><g class="cls-9"><rect class="cls-10" x="415.21" y="39.87" width="180.77" height="269.07" transform="translate(-20.28 271.85) rotate(-29.53)"/></g></g></mask><mask id="mask-24" x="115.03" y="25.02" width="441.78" height="380.05" maskUnits="userSpaceOnUse"><g id="id10-2" data-name="id10"><g class="cls-13"><rect class="cls-14" x="144.27" y="105.21" width="383.3" height="219.67" transform="translate(-62.35 193.5) rotate(-29.53)"/></g></g></mask><linearGradient id="linear-gradient-31" x1="-595.88" y1="1265.18" x2="-211.3" y2="1963.78" gradientTransform="matrix(-0.49, 0.87, 0.87, 0.49, -1482.61, 50.91)" xlink:href="#linear-gradient-29"/><mask id="mask-25" x="-67" y="409.04" width="324.02" height="302.53" maskUnits="userSpaceOnUse"><g id="id6-3" data-name="id6"><g class="cls-17"><rect class="cls-18" x="-6.36" y="431.28" width="202.74" height="258.04" transform="translate(-440.93 371.28) rotate(-60.95)"/></g></g></mask><mask id="mask-26" x="-26.4" y="250.53" width="288.68" height="323" maskUnits="userSpaceOnUse"><g id="id8-3" data-name="id8"><g class="cls-21"><rect class="cls-22" x="-16.59" y="321.64" width="269.07" height="180.77" transform="translate(-299.52 315.05) rotate(-60.95)"/></g></g></mask><mask id="mask-27" x="20.2" y="346.56" width="441.75" height="378.16" maskUnits="userSpaceOnUse"><g id="id10-3" data-name="id10"><g class="cls-25"><rect class="cls-26" x="131.24" y="343.99" width="219.67" height="383.3" transform="translate(-344.24 486.28) rotate(-60.95)"/></g></g></mask></defs><g id="Layer_2" data-name="Layer 2"><g id="Layer_1-2" data-name="Layer 1"><circle class="cls-37" cx="380.61" cy="406.35" r="300.92"/><path class="cls-38" d="M142.2,222.79c-7.75,46.9-15.58,129.57,7.66,201.73,28,86.78,72.23,154,160.68,170.22,62.83,11.5,54.49-36.44,135.86-49.62,40.66-6.59,113.72,5.76,135.91-37.63,24.19-47.31,76.8-137.91,52.48-262.19a299.33,299.33,0,0,1,46.74,161.05c0,166.08-134.84,300.92-300.93,300.92S79.68,572.43,79.68,406.35A299.53,299.53,0,0,1,142.2,222.79Z"/><path class="cls-39" d="M374.74,134.06c94.16,0,177.78,55.8,196,113.29s4.66,180-52.35,222S302.1,527.57,252.6,480.83s-86.44-171.7-61.89-233.48c21.83-55,89.86-113.29,184-113.29Z"/><circle class="cls-40" cx="358.32" cy="273.74" r="73.24"/><circle class="cls-41" cx="444.44" cy="373.44" r="51.84" transform="translate(-133.89 423.64) rotate(-45)"/><path class="cls-42" d="M85.55,347c-.43,170.25,112.74,274.91,200.51,301.6,83.4,25.36,105.19,22.62,105.19,22.62s-18.37-80,72.3-77.61c80.4,2.1,86.65,9.51,120.15-4.91,16.45-7.08,75.79-58.65,97.66-192.5v.48l0,.49v.15l-3.48,55.82C655.41,597,530.78,707.27,380.6,707.27c-166.08,0-300.92-134.84-300.92-300.92A301.67,301.67,0,0,1,85.55,347Z"/><path class="cls-43" d="M238.46,671.61c8.13-10.7,22.52-24.48,44.15-27.61,36.48-5.29,42.76-8.58,60.47-25.72,21.72-21,55.91-16.39,80.76,0S457.07,643.47,492,644c17.94.27,33.13,9,44.23,19.93a301,301,0,0,1-297.73,7.68ZM211.89,157.2a113.4,113.4,0,0,1,18.68,19.88c16.18,21.77-11.49,56.72,5,88.45C252.35,297.65,271,292,283.05,324.87c21.11,57.7-52.14,45.64-34.37,88.37C261.86,445,180,464,198.37,492.63S234.7,514,235.61,552.22c.33,13.62-19.36,23-5,63.71,7.48,21.23,7.28,38.33-10.58,44.89C135.69,607.45,79.68,513.39,79.68,406.35c0-103.59,52.45-195,132.21-249.15Zm347,6.75c74.37,54.82,122.66,143,122.66,242.4a300.27,300.27,0,0,1-15.73,96.2,60.36,60.36,0,0,0-21.46,21c-14.55,23.28-31.8,80.63-57.47,80.63s-39.54-41.17-28-80.63c8-27.21-19.36-35.76-22.68-69.08-3.05-30.72,10.84-54.29,0-78-16.06-35.15-72.66-57.43-70.42-90.91S526.19,160.2,558.87,164ZM534,532.88c9.49-10.84-11.17-14.78-18.58-26.09-8.28-12.65-7.9-42.75-20.84-40.07-17.63,3.67-11.88,40.38,0,54.27C505.59,533.88,526.18,541.77,534,532.88ZM280.89,409.77c-1.94,14.27,6.22,40.07-33.61,61.85-29.92,16.37-10.5,70,39.63,34.18,21.89-15.66,30.89-27.32,33.7-51.31,2.75-23.42,4.32-45.6,0-56.12-7.1-17.29-35.78-17.57-39.72,11.41ZM258.64,131.21a301.58,301.58,0,0,1,228-6.55c-18,8-22.64,18.59-20.84,33.8,3.18,26.92-46.28,47.84-67.95,23s-42,15.29-71.45,8.45c-19.58-4.53-27.17-14.89-44.09-39.21-5.81-8.36-14.78-14.65-23.64-19.48Z"/><path class="cls-44" d="M245,473c.72-.48,1.47-.93,2.25-1.36,39.83-21.79,31.66-47.58,33.61-61.85,3.94-29,32.62-28.69,39.72-11.4,4.32,10.51,2.74,32.7,0,56.12-2.54,21.68-10.13,33.29-27.73,46.88-16.59-4.6-30.55-11.36-40.28-20.54Q248.76,477.2,245,473Zm238.36,14.61c-.17-10.35,3-19.17,11.16-20.87,5.55-1.15,8.65,3.73,11,10.69A183.64,183.64,0,0,1,483.39,487.59Zm39.5-303.48c23.71,18.69,40.74,40.83,47.83,63.24,16.16,51,7.31,153.22-34.72,204.92-2.21-29.64,10.77-52.64.19-75.78-16.06-35.15-72.66-57.43-70.42-90.91,1.52-22.92,29.28-73.22,57.12-101.47Zm-288,2.19c5.38,21.67-13.62,51.66.74,79.23C252.34,297.64,271,292,283.05,324.87c21.11,57.7-52.14,45.64-34.38,88.37,5.77,13.88-6.64,25.33-20.9,36.21C192,391.83,170.5,298.19,190.71,247.35c8.34-21,23.44-42.51,44.16-61ZM609.05,311.46a14.18,14.18,0,1,1-14.19,14.18A14.18,14.18,0,0,1,609.05,311.46ZM168.73,217.09a14.18,14.18,0,1,1-14.18,14.18A14.18,14.18,0,0,1,168.73,217.09Zm115.68-63.36a213,213,0,0,1,90.33-19.67,247.73,247.73,0,0,1,90.69,17.41,45.46,45.46,0,0,0,.34,7c3.18,26.93-46.28,47.84-68,23s-42,15.29-71.44,8.46c-18.74-4.34-26.5-14-42-36.17Z"/><path class="cls-45" d="M238.46,671.61c8.13-10.7,22.52-24.48,44.15-27.61,36.48-5.29,42.76-8.58,60.47-25.72,21.72-21,55.91-16.39,80.76,0S457.07,643.47,492,644c17.94.27,33.13,9,44.23,19.93l-.5.3-.06,0a298.85,298.85,0,0,1-116.95,40.61h0L418,705l-.64.08-.64.07h0l-.64.08-.63.07h0l-.62.07h0l-.64.07-.62.07h-.06l-.61.06-.65.07h0l-.6.07h-.08l-.61.07-.63.06h-.07l-.55.06h-.08L409,706l-.61.06h-.1l-.55.05h-.06l-.63.06H407l-.55,0h-.12l-.59,0h0l-.61,0H405l-.51,0h-.12l-.61,0-.6,0H403l-.5,0h-.11l-.6,0h-.07l-.53,0H401l-.53,0h-.07l-.6,0h-.12l-.49,0h-.15l-.59,0-.6,0h-.15l-.48,0h-.13l-.6,0h-.08l-.52,0h-.16l-.49,0h-.11l-.6,0h-.13l-.47,0h-.17l-.55,0h0l-.6,0h-.77l-.59,0h-.07l-.53,0h-.78l-.59,0h-.78l-.51,0H369.11l-.37,0h-.18l-.51,0H368l-.52,0h-.75l-.36,0h-.2l-.43,0h-.11l-.54,0h-.18l-.36,0h-.22l-.34,0h-.21l-.38,0h-.16l-.53,0h-.18l-.36,0-.22,0-.33,0h-.23l-.34,0-.2,0-.52,0h-.19l-.35,0h-.23l-.31,0-.24,0-.32,0-.22,0-.46,0h-.25l-.34,0-.25,0-.29,0-.25,0-.29,0-.25,0-.33,0h-.19l-.19,0-.32,0-.27,0-.27,0-.27,0-.26,0-.28,0-.26,0-.26,0-.23,0-.26,0-.3,0-.23,0-.3,0-.23,0-.3,0-.22,0-.31,0-.47-.05-.33,0h-.19l-.33,0-.19,0-.33,0-.18,0-.35,0-.47-.05-.37,0h-.13l-.36,0-.15,0-.36,0-.14,0-.38,0-.47,0-.45-.06h0l-.4-.05h-.11l-.39,0h-.1l-1.79-.22h-.05l-.43-.05h-.05l-2.32-.31h0a298.71,298.71,0,0,1-99.74-32.19l-.18-.09-.23-.13-.26-.14-.17-.09-.44-.23ZM220,660.82c-172-94.45-169.22-338.54-77.79-438-7.75,46.9-15.58,129.57,7.67,201.73,18.28,56.78,43.56,105.2,83.64,136.43-4.57,10.52-14.12,23.23-2.94,55,7.48,21.23,7.28,38.33-10.58,44.89ZM634.79,245.3c75.11,128,37.94,236.72,31,257.25a60.36,60.36,0,0,0-21.46,21c-14.55,23.28-31.8,80.63-57.47,80.63C562.8,604.2,549.1,568,557,531c10.8-5.06,19.68-12.47,25.3-23.46,24.19-47.31,76.81-137.91,52.48-262.19Z"/><path class="cls-46" d="M407.45,609.75a88.55,88.55,0,0,1,16.39,8.53C448.69,634.67,457.07,643.47,492,644c17.94.28,33.12,9,44.23,19.93-75.05,62.08-253,45.56-297.73,7.68,7.29-9.6,19.63-21.68,37.73-26.32,3.31,1.2,6.61,2.3,9.86,3.29,83.41,25.36,105.2,22.62,105.2,22.62s-8.89-38.67,16.19-61.44ZM220,660.81C64.48,566.36,74.23,394.77,85.55,347c-.35,137.26,73.14,231.88,147.62,277.38,4.5,17.27,2.25,30.8-13.18,36.46ZM681.36,396.17c1.16,8.21-.14,66-15.56,106.38a60.36,60.36,0,0,0-21.46,21c-14.55,23.28-31.8,80.62-57.47,80.62-7.58,0-14.13-3.59-19.3-9.67a122.62,122.62,0,0,0,16.13-5.85c16.45-7.08,75.79-58.65,97.66-192.5Z"/><path class="cls-47" d="M500.13,651c88.47-28.7,144-112,144-112q-3.36,6.56-7.09,13c-55.49,96.11-156.08,150-259.61,150.23C453.53,737.07,551.35,701,551.35,701,730.14,737.84,847,435.87,646.9,270c11,147.4-132.77,143.89-181.28,238.26S500.13,651,500.13,651Z"/><g class="cls-48"><path class="cls-49" d="M560.28,700.7C683.93,726.2,777.94,589.63,758,448.11,742.48,627.29,609.67,665.9,609.67,665.9a182.53,182.53,0,0,1-49.39,34.8Z"/></g><g class="cls-50"><path class="cls-51" d="M653.07,538.7q-3.37,6.54-7.09,13c-55.49,96.12-156.09,150-259.62,150.24,27.11,12.42,57,15.84,84.21,15.08,138.89-56.32,182.5-178.31,182.5-178.31Z"/></g><g class="cls-52"><path class="cls-53" d="M620.51,435.56c41.52-47.67,81.89-96.18,35.32-165.79,11,147.4-132.77,143.88-181.29,238.26s34.51,142.68,34.51,142.68a229.5,229.5,0,0,0,40.58-17.81c-48.92-49.43,16.94-135.4,70.88-197.34Z"/></g><path class="cls-54" d="M535.33,180.08C466.75,117.24,366.88,110,366.88,110q7.37-.3,14.81-.23c111,.91,207.4,61.89,258.66,151.84-7.15-83.4-86.78-150.71-86.78-150.71-56-173.75-376.39-126.63-422.05,129.25,122.85-82.19,190.64,44.6,296.66,40.3S535.33,180.08,535.33,180.08Z"/><g class="cls-55"><path class="cls-49" d="M548.94,103.23C510.19-16.92,345-31.41,231.72,55.71c163.55-74.83,262.6,21.7,262.6,21.7a182.7,182.7,0,0,1,54.62,25.82Z"/></g><g class="cls-56"><path class="cls-51" d="M362.25,102.34q7.35-.28,14.8-.23C488,103,584.46,164,635.73,254c-2.55-29.71-14.3-57.39-28.38-80.7-117.46-93.09-245.1-70.91-245.1-70.91Z"/></g><g class="cls-57"><path class="cls-53" d="M288.56,181.5c-61.94-12.63-124-23.84-161.67,51C249.75,150.3,317.52,277.1,423.56,272.8S530.7,172.45,530.7,172.45a228.67,228.67,0,0,0-35.5-26.53c-18.9,66.92-126.16,52-206.64,35.58Z"/></g><path class="cls-58" d="M107.28,383.7C89.41,475,135.28,564,135.28,564q-4.11-6.12-7.92-12.51c-57.08-95.18-55.31-209.26-5.27-299.9C54.65,301.16,38.72,404.21,38.72,404.21-80.34,542.59,126.87,791.42,369,697c-134.18-62-61.31-185.94-120.25-274.17s-141.5-39.12-141.5-39.12Z"/><g class="cls-59"><path class="cls-49" d="M34.61,412.14C-47.73,507.85,26,656.35,159.42,707.62,10.3,607.06,41,472.21,41,472.21a182.5,182.5,0,0,1-6.43-60.07Z"/></g><g class="cls-60"><path class="cls-51" d="M131.17,571.92q-4.08-6.12-7.92-12.5C66.17,464.23,68,350.14,118,259.5c-24,17.67-41.52,42.13-54.07,66.3C45.7,474.56,131.17,571.92,131.17,571.92Z"/></g><g class="cls-61"><path class="cls-53" d="M237.14,593.54C258.65,653,281.45,711.83,364.92,704.92c-134.18-62-61.31-185.93-120.25-274.17s-141.49-39.12-141.49-39.12a229.3,229.3,0,0,0-4.13,44.12C166,417,209.19,516.31,237.14,593.54Z"/></g></g></g></svg>